<svg width="294" height="55" viewBox="0 0 294 55" fill="none" xmlns="http://www.w3.org/2000/svg">
<path d="M12.768 52.632C7.84 51.544 5.376 49.304 5.376 45.912C5.376 44.952 5.536 43.832 5.856 42.552C6.176 41.208 6.688 39.736 7.392 38.136L15.552 19.8C14.592 19.928 13.536 20.056 12.384 20.184C11.232 20.312 9.952 20.44 8.544 20.568C8.288 20.568 8.16 20.344 8.16 19.896C8.16 19 8.32 18.488 8.64 18.36L16.704 17.208L22.944 4.536C23.52 3.384 25.312 2.808 28.32 2.808C29.728 2.808 30.336 2.968 30.144 3.288C28.736 5.528 27.296 7.8 25.824 10.104C24.416 12.344 23.008 14.584 21.6 16.824C21.792 16.76 22.208 16.696 22.848 16.632C23.488 16.568 24.32 16.504 25.344 16.44C26.112 16.376 26.848 16.344 27.552 16.344C28.256 16.28 28.928 16.248 29.568 16.248C32.256 16.248 33.536 16.376 33.408 16.632C32.96 17.08 28.608 17.944 20.352 19.224C13.376 32.408 9.888 41.72 9.888 47.16C9.888 49.144 10.464 50.328 11.616 50.712C12.512 50.968 14.784 49.784 18.432 47.16C20.544 45.624 22.464 43.96 24.192 42.168C25.92 40.312 27.488 38.36 28.896 36.312C29.344 35.672 29.76 35.352 30.144 35.352C30.4 35.352 30.528 35.48 30.528 35.736C30.528 35.992 30.368 36.376 30.048 36.888C27.616 40.792 24.384 44.472 20.352 47.928C16.448 51.32 13.92 52.888 12.768 52.632ZM47.7325 51.96C46.3245 52.088 44.9805 51.736 43.7005 50.904C42.4205 50.008 41.7805 49.016 41.7805 47.928C41.7805 45.944 43.6685 42.136 47.4445 36.504C51.6045 30.232 53.6845 26.616 53.6845 25.656C53.6845 25.08 53.3645 24.792 52.7245 24.792C51.0605 24.792 47.8605 27.256 43.1245 32.184C40.3085 35 37.6525 38.04 35.1565 41.304C32.7245 44.504 30.4205 47.896 28.2445 51.48C28.1165 51.608 27.7645 51.672 27.1885 51.672C24.3725 51.672 23.0925 51.288 23.3485 50.52C24.4365 47.576 25.8125 44.28 27.4765 40.632C29.1405 36.984 31.1245 32.92 33.4285 28.44C41.0445 13.72 46.2285 5.304 48.9805 3.192C49.7485 2.616 50.8045 2.328 52.1485 2.328C54.3885 2.328 55.5085 2.776 55.5085 3.672C55.5085 3.864 55.3165 4.12 54.9325 4.44C46.5485 10.648 39.1245 22.328 32.6605 39.48C32.7245 39.416 33.0445 39.128 33.6205 38.616C34.2605 38.04 35.1565 37.208 36.3085 36.12C37.5245 35.032 38.5485 34.04 39.3805 33.144C40.2765 32.184 41.0445 31.352 41.6845 30.648C44.8205 27.128 48.2765 24.504 52.0525 22.776C52.9485 22.392 53.9725 22.2 55.1245 22.2C57.7485 22.2 59.0605 23.16 59.0605 25.08C59.0605 26.296 58.4525 27.736 57.2365 29.4C50.3245 39.064 46.8685 45.56 46.8685 48.888C46.8685 49.592 47.0925 50.04 47.5405 50.232C48.5645 50.68 51.0925 49.624 55.1245 47.064C59.8605 43.992 63.8925 40.184 67.2205 35.64C67.9245 34.68 68.5645 34.2 69.1405 34.2C69.3325 34.2 69.4285 34.264 69.4285 34.392C69.4285 34.712 69.1405 35.32 68.5645 36.216C65.7485 40.632 61.8445 44.536 56.8525 47.928C52.3725 50.872 49.3325 52.216 47.7325 51.96ZM69.8458 51.768C67.9898 51.768 66.3578 51.32 64.9498 50.424C63.0938 49.144 62.1658 47.288 62.1658 44.856C62.1658 42.232 63.2858 39.032 65.5258 35.256C68.5338 30.328 72.9498 26.008 78.7738 22.296C80.2458 21.336 81.7178 20.856 83.1898 20.856C85.1098 20.856 86.4858 21.464 87.3177 22.68C87.8298 23.384 88.0858 24.184 88.0858 25.08C88.0858 27.768 85.9098 30.712 81.5578 33.912C80.2778 34.808 78.9018 35.64 77.4298 36.408C76.0218 37.112 74.4858 37.624 72.8218 37.944L68.6938 38.808C67.1578 41.56 66.3898 43.864 66.3898 45.72C66.3898 48.28 67.8938 49.56 70.9018 49.56C73.2698 49.56 76.1498 48.568 79.5418 46.584C84.0858 43.96 87.9898 40.312 91.2538 35.64C91.7658 34.872 92.2458 34.488 92.6938 34.488C92.8858 34.488 92.9818 34.616 92.9818 34.872C92.9818 35.192 92.7578 35.672 92.3098 36.312C86.1018 45.656 79.0938 50.776 71.2858 51.672C71.0298 51.736 70.7738 51.768 70.5178 51.768C70.3258 51.768 70.1018 51.768 69.8458 51.768ZM69.8458 37.176C71.6378 37.176 73.9418 36.376 76.7578 34.776C80.7258 32.536 83.5098 29.656 85.1098 26.136C85.5578 25.24 85.7818 24.504 85.7818 23.928C85.7818 23.352 85.5578 23.064 85.1098 23.064C84.2778 23.064 82.5818 24.088 80.0218 26.136C78.1658 27.736 76.3418 29.464 74.5498 31.32C72.8218 33.112 71.1578 35.032 69.5578 37.08C69.4938 37.144 69.5898 37.176 69.8458 37.176ZM129.615 52.056C128.399 52.056 127.247 51.736 126.159 51.096C125.135 50.52 124.463 49.88 124.143 49.176C123.951 48.664 123.855 47.992 123.855 47.16C123.855 46.072 123.983 44.824 124.239 43.416C124.495 41.944 124.879 40.376 125.391 38.712C124.943 39.544 124.303 40.504 123.471 41.592C122.703 42.68 121.743 43.96 120.591 45.432C117.135 49.528 114.319 51.576 112.143 51.576C111.823 51.576 111.567 51.544 111.375 51.48C107.535 50.584 105.615 48.408 105.615 44.952C105.615 42.2 106.927 38.68 109.551 34.392C111.215 31.768 113.743 29.24 117.135 26.808C121.487 23.608 125.615 22.008 129.519 22.008C130.991 22.008 132.367 22.232 133.647 22.68L136.527 17.496C137.999 14.872 139.215 12.504 140.175 10.392C141.199 8.28 142.031 6.456 142.671 4.92C143.183 3.768 144.975 3.192 148.047 3.192C149.455 3.192 150.063 3.352 149.871 3.672L137.199 24.696C137.455 25.08 137.519 25.528 137.391 26.04C137.327 26.424 137.167 26.488 136.911 26.232L136.527 25.848L135.279 27.96C130.415 36.216 127.983 42.648 127.983 47.256C127.983 49.048 128.591 49.944 129.807 49.944C131.151 49.944 133.199 48.92 135.951 46.872C139.727 44.056 143.279 40.312 146.607 35.64C147.311 34.68 147.951 34.2 148.527 34.2C148.719 34.2 148.815 34.264 148.815 34.392C148.815 34.712 148.527 35.32 147.951 36.216C145.199 40.44 141.999 44.152 138.351 47.352C135.471 49.848 133.231 51.32 131.631 51.768C130.991 51.96 130.319 52.056 129.615 52.056ZM111.375 49.944C112.911 50.584 116.175 47.736 121.167 41.4C123.087 38.968 124.751 36.792 126.159 34.872C127.567 32.888 128.719 31.128 129.615 29.592C129.871 29.08 130.255 28.376 130.767 27.48C131.343 26.52 132.047 25.4 132.879 24.12C132.687 24.056 132.463 24.024 132.207 24.024C132.015 24.024 131.823 24.024 131.631 24.024C129.007 24.024 126.191 25.016 123.183 27C120.175 28.92 117.359 31.576 114.734 34.968C112.879 37.336 111.535 39.512 110.703 41.496C109.935 43.48 109.551 45.208 109.551 46.68C109.551 48.408 110.159 49.496 111.375 49.944ZM149.346 51.768C147.49 51.768 145.858 51.32 144.45 50.424C142.594 49.144 141.666 47.288 141.666 44.856C141.666 42.232 142.786 39.032 145.026 35.256C148.034 30.328 152.45 26.008 158.274 22.296C159.746 21.336 161.218 20.856 162.69 20.856C164.61 20.856 165.986 21.464 166.818 22.68C167.33 23.384 167.586 24.184 167.586 25.08C167.586 27.768 165.41 30.712 161.058 33.912C159.778 34.808 158.402 35.64 156.93 36.408C155.522 37.112 153.986 37.624 152.322 37.944L148.194 38.808C146.658 41.56 145.89 43.864 145.89 45.72C145.89 48.28 147.394 49.56 150.402 49.56C152.77 49.56 155.65 48.568 159.042 46.584C163.586 43.96 167.49 40.312 170.754 35.64C171.266 34.872 171.746 34.488 172.194 34.488C172.386 34.488 172.482 34.616 172.482 34.872C172.482 35.192 172.258 35.672 171.81 36.312C165.602 45.656 158.594 50.776 150.786 51.672C150.53 51.736 150.274 51.768 150.018 51.768C149.826 51.768 149.602 51.768 149.346 51.768ZM149.346 37.176C151.138 37.176 153.442 36.376 156.258 34.776C160.226 32.536 163.01 29.656 164.61 26.136C165.058 25.24 165.282 24.504 165.282 23.928C165.282 23.352 165.058 23.064 164.61 23.064C163.778 23.064 162.082 24.088 159.522 26.136C157.666 27.736 155.842 29.464 154.05 31.32C152.322 33.112 150.658 35.032 149.058 37.08C148.994 37.144 149.09 37.176 149.346 37.176ZM175.799 52.632C170.871 51.544 168.407 49.304 168.407 45.912C168.407 44.952 168.567 43.832 168.887 42.552C169.207 41.208 169.719 39.736 170.423 38.136L178.583 19.8C177.623 19.928 176.567 20.056 175.415 20.184C174.263 20.312 172.983 20.44 171.575 20.568C171.319 20.568 171.191 20.344 171.191 19.896C171.191 19 171.351 18.488 171.671 18.36L179.735 17.208L185.975 4.536C186.551 3.384 188.343 2.808 191.351 2.808C192.759 2.808 193.367 2.968 193.175 3.288C191.767 5.528 190.327 7.8 188.855 10.104C187.447 12.344 186.039 14.584 184.631 16.824C184.823 16.76 185.239 16.696 185.879 16.632C186.519 16.568 187.351 16.504 188.375 16.44C189.143 16.376 189.879 16.344 190.583 16.344C191.287 16.28 191.959 16.248 192.599 16.248C195.287 16.248 196.567 16.376 196.439 16.632C195.991 17.08 191.639 17.944 183.383 19.224C176.407 32.408 172.919 41.72 172.919 47.16C172.919 49.144 173.495 50.328 174.647 50.712C175.543 50.968 177.815 49.784 181.463 47.16C183.575 45.624 185.495 43.96 187.223 42.168C188.951 40.312 190.519 38.36 191.927 36.312C192.375 35.672 192.791 35.352 193.175 35.352C193.431 35.352 193.559 35.48 193.559 35.736C193.559 35.992 193.399 36.376 193.079 36.888C190.647 40.792 187.415 44.472 183.383 47.928C179.479 51.32 176.951 52.888 175.799 52.632ZM211.724 52.056C210.444 52.056 209.26 51.64 208.172 50.808C207.148 49.976 206.54 49.176 206.348 48.408C206.156 47.512 207.34 44.312 209.9 38.808L207.692 41.976C206.732 43.384 205.772 44.632 204.812 45.72C203.852 46.808 202.956 47.768 202.124 48.6C199.692 50.904 197.644 51.864 195.98 51.48C192.14 50.584 190.22 48.408 190.22 44.952C190.22 42.2 191.532 38.68 194.156 34.392C194.988 33.112 196.044 31.832 197.324 30.552C198.604 29.272 200.076 28.024 201.74 26.808C206.028 23.672 210.156 22.104 214.124 22.104C216.556 22.104 218.86 22.744 221.036 24.024C221.74 24.536 222.092 25.08 222.092 25.656C222.092 26.104 221.964 26.328 221.708 26.328C221.644 26.328 221.58 26.296 221.516 26.232C220.172 24.76 218.38 24.024 216.14 24.024C213.516 24.024 210.668 25.016 207.596 27C204.524 28.984 201.772 31.64 199.34 34.968C195.884 39.768 194.156 43.672 194.156 46.68C194.156 48.408 194.764 49.496 195.98 49.944C197.516 50.584 200.78 47.736 205.772 41.4C207.82 38.904 209.516 36.664 210.86 34.68C212.268 32.696 213.388 31 214.22 29.592C214.604 28.888 215.308 28.536 216.332 28.536C218.252 28.536 219.212 29.112 219.212 30.264C219.212 30.456 219.18 30.584 219.116 30.648C213.548 39.48 210.764 45.464 210.764 48.6C210.764 49.368 210.988 49.784 211.436 49.848C212.78 50.232 215.02 49.24 218.156 46.872C221.932 44.056 225.484 40.312 228.812 35.64C229.516 34.68 230.156 34.2 230.732 34.2C230.924 34.2 231.02 34.264 231.02 34.392C231.02 34.712 230.732 35.32 230.156 36.216C228.812 38.328 227.308 40.312 225.644 42.168C224.044 44.024 222.252 45.752 220.268 47.352C217.452 49.72 215.148 51.192 213.356 51.768C212.908 51.96 212.364 52.056 211.724 52.056ZM244.072 17.304C243.048 17.432 241.928 17.304 240.712 16.92C239.56 16.536 238.984 16.056 238.984 15.48C238.984 15.096 239.112 14.712 239.368 14.328C239.624 13.88 239.944 13.432 240.328 12.984C241.416 11.64 242.056 10.808 242.248 10.488C242.44 10.104 242.792 9.912 243.304 9.912C244.776 9.912 245.928 10.616 246.76 12.024C246.824 12.088 246.856 12.216 246.856 12.408C246.856 12.984 246.536 13.816 245.896 14.904C245.064 16.44 244.456 17.24 244.072 17.304ZM229.576 51.96C225.864 51.128 224.008 49.656 224.008 47.544C224.008 46.52 225.256 42.904 227.752 36.696C228.456 35.48 229.384 33.72 230.536 31.416C231.752 29.048 233.256 26.168 235.048 22.776C235.368 22.264 236.072 22.008 237.16 22.008C238.12 22.008 239.048 22.168 239.944 22.488C240.904 22.744 241.288 23 241.096 23.256C232.648 35.224 228.424 43.512 228.424 48.12C228.424 49.464 228.872 50.136 229.768 50.136C231.496 50.136 234.216 48.92 237.928 46.488C242.344 43.48 246.056 39.864 249.064 35.64C249.704 34.616 250.344 34.104 250.984 34.104C251.176 34.104 251.272 34.2 251.272 34.392C251.272 34.712 250.984 35.32 250.408 36.216C247.592 40.632 243.688 44.536 238.696 47.928C234.216 51 231.176 52.344 229.576 51.96ZM253.877 52.824C249.333 51.864 247.061 49.752 247.061 46.488C247.061 44.568 247.669 41.784 248.885 38.136C249.781 35.384 250.997 32.248 252.533 28.728C254.133 25.144 256.117 21.176 258.485 16.824C264.181 6.136 268.501 0.567999 271.445 0.119997C271.701 0.0559978 272.117 0.0239983 272.693 0.0239983C275.829 0.0239983 277.397 1.496 277.397 4.44C277.397 8.472 274.005 14.2 267.221 21.624C263.445 25.848 259.285 29.592 254.741 32.856C252.053 39.256 250.709 43.96 250.709 46.968C250.709 48.952 251.317 50.136 252.533 50.52C253.493 50.776 255.733 49.624 259.253 47.064C263.285 44.12 266.741 40.536 269.621 36.312C270.069 35.672 270.485 35.352 270.869 35.352C271.125 35.352 271.253 35.48 271.253 35.736C271.253 35.992 271.093 36.376 270.773 36.888C268.341 40.792 265.173 44.504 261.269 48.024C257.493 51.48 255.029 53.08 253.877 52.824ZM255.797 30.264C258.101 28.536 260.021 26.808 261.557 25.08L267.221 18.36C272.469 12.152 275.093 7.576 275.093 4.632C275.093 4.056 274.773 3.768 274.133 3.768C273.045 3.768 271.317 5.336 268.949 8.472C268.245 9.496 267.509 10.488 266.741 11.448C265.973 12.408 265.205 13.4 264.437 14.424C263.477 15.832 262.581 17.208 261.749 18.552C260.981 19.896 260.245 21.272 259.541 22.68C259.349 22.936 258.933 23.704 258.293 24.984C257.717 26.264 256.885 28.024 255.797 30.264ZM267.387 54.936C267.131 54.936 267.003 54.84 267.003 54.648C267.003 53.816 269.179 52.28 273.531 50.04C274.619 49.528 275.611 49.016 276.507 48.504C277.403 47.928 278.171 47.416 278.811 46.968C282.715 44.088 284.667 41.592 284.667 39.48C284.667 37.88 283.099 37.08 279.963 37.08C272.667 36.952 269.019 35.352 269.019 32.28C269.019 30.936 269.595 29.656 270.747 28.44C272.091 26.904 274.331 25.432 277.467 24.024C280.859 22.488 283.963 21.72 286.779 21.72C289.275 21.72 291.163 22.328 292.443 23.544C293.019 24.12 293.307 24.824 293.307 25.656C293.307 26.552 293.019 27.352 292.443 28.056C291.867 28.76 291.227 29.112 290.523 29.112C289.243 29.112 288.539 28.248 288.411 26.52C288.411 25.304 288.219 24.6 287.835 24.408C287.451 24.216 286.427 24.12 284.763 24.12C282.651 24.12 280.283 24.824 277.659 26.232C274.523 27.832 273.051 29.752 273.243 31.992C273.371 33.272 275.803 33.912 280.539 33.912C287.003 33.912 290.235 35.48 290.235 38.616C290.235 42.008 287.451 45.4 281.883 48.792C278.363 50.968 274.075 52.888 269.019 54.552C268.315 54.808 267.771 54.936 267.387 54.936Z" fill="#E2E3DA"/>
<path d="M11.68 51.439V32.679H4.16V28.559H24.24V32.679H16.72V51.439H11.68ZM32.8706 51.439V28.559H37.9106V37.759H48.9106V28.559H53.9506V51.439H48.9106V41.919H37.9106V51.439H32.8706ZM70.2775 37.879H81.8775V41.799H70.2775V37.879ZM70.9575 47.399H83.6775V51.439H65.9175V28.559H83.2375V32.639H70.9575V47.399ZM109.941 51.439V28.559H120.301C122.914 28.559 125.168 29.0256 127.061 29.959C128.981 30.8923 130.461 32.2256 131.501 33.959C132.568 35.6656 133.101 37.679 133.101 39.999C133.101 42.3456 132.568 44.3723 131.501 46.079C130.461 47.7856 128.981 49.1056 127.061 50.039C125.168 50.9723 122.914 51.439 120.301 51.439H109.941ZM114.981 47.359H120.141C121.768 47.359 123.168 47.0656 124.341 46.479C125.514 45.8923 126.421 45.0523 127.061 43.959C127.701 42.8656 128.021 41.5456 128.021 39.999C128.021 38.4523 127.701 37.1323 127.061 36.039C126.421 34.9456 125.514 34.119 124.341 33.559C123.168 32.9723 121.768 32.679 120.141 32.679H114.981V47.359ZM147.543 37.879H159.143V41.799H147.543V37.879ZM148.223 47.399H160.943V51.439H143.183V28.559H160.503V32.639H148.223V47.399ZM175.352 51.439V32.679H167.832V28.559H187.912V32.679H180.392V51.439H175.352ZM191.456 51.439L201.856 28.559H206.856L217.216 51.439H212.216L203.496 31.119H205.176L196.376 51.439H191.456ZM196.616 46.479L197.976 42.639H209.896L211.256 46.479H196.616ZM225.488 51.439V28.559H230.528V51.439H225.488ZM242.48 51.439V28.559H247.52V47.359H259.28V51.439H242.48ZM284.791 44.679C284.791 46.119 284.391 47.3723 283.591 48.439C282.817 49.5056 281.711 50.3456 280.271 50.959C278.831 51.5456 277.071 51.839 274.991 51.839C273.204 51.839 271.444 51.599 269.711 51.119C268.004 50.639 266.631 50.0123 265.591 49.239L267.471 45.319C268.431 46.039 269.604 46.6123 270.991 47.039C272.377 47.4656 273.791 47.679 275.231 47.679C276.937 47.679 278.124 47.4256 278.791 46.919C279.457 46.4123 279.791 45.8123 279.791 45.119C279.791 44.479 279.537 43.9723 279.031 43.599C278.551 43.2256 277.897 42.9323 277.071 42.719C276.271 42.479 275.391 42.2656 274.431 42.079C273.471 41.8656 272.511 41.6256 271.551 41.359C270.591 41.0923 269.711 40.719 268.911 40.239C268.111 39.759 267.457 39.119 266.951 38.319C266.471 37.519 266.231 36.5056 266.231 35.279C266.231 33.8656 266.631 32.6256 267.431 31.559C268.231 30.4923 269.351 29.6656 270.791 29.079C272.257 28.4923 273.977 28.199 275.951 28.199C277.364 28.199 278.777 28.359 280.191 28.679C281.631 28.9723 282.884 29.4656 283.951 30.159L282.231 34.079C281.217 33.4123 280.151 32.959 279.031 32.719C277.937 32.4523 276.857 32.319 275.791 32.319C274.191 32.319 273.031 32.5723 272.311 33.079C271.617 33.5856 271.271 34.2256 271.271 34.999C271.271 35.639 271.511 36.1456 271.991 36.519C272.497 36.8923 273.151 37.199 273.951 37.439C274.751 37.6523 275.631 37.8523 276.591 38.039C277.577 38.2256 278.537 38.4656 279.471 38.759C280.431 39.0256 281.311 39.399 282.111 39.879C282.937 40.3323 283.591 40.9456 284.071 41.719C284.551 42.4923 284.791 43.479 284.791 44.679Z" fill="black" fill-opacity="0.81"/>
</svg>
