<svg width="296" height="52" viewBox="0 0 296 52" fill="none" xmlns="http://www.w3.org/2000/svg">
<path d="M27.552 49.056C26.336 49.056 25.184 48.736 24.096 48.096C23.072 47.52 22.4 46.88 22.08 46.176C21.888 45.664 21.792 44.992 21.792 44.16C21.792 43.072 21.92 41.824 22.176 40.416C22.432 38.944 22.816 37.376 23.328 35.712C22.88 36.544 22.24 37.504 21.408 38.592C20.64 39.68 19.68 40.96 18.528 42.432C15.072 46.528 12.256 48.576 10.08 48.576C9.76 48.576 9.504 48.544 9.312 48.48C5.472 47.584 3.552 45.408 3.552 41.952C3.552 39.2 4.864 35.68 7.488 31.392C9.152 28.768 11.68 26.24 15.072 23.808C19.424 20.608 23.552 19.008 27.456 19.008C28.928 19.008 30.304 19.232 31.584 19.68L34.464 14.496C35.936 11.872 37.152 9.504 38.112 7.392C39.136 5.28 39.968 3.456 40.608 1.92C41.12 0.767998 42.912 0.191998 45.984 0.191998C47.392 0.191998 48 0.351997 47.808 0.671997L35.136 21.696C35.392 22.08 35.456 22.528 35.328 23.04C35.264 23.424 35.104 23.488 34.848 23.232L34.464 22.848L33.216 24.96C28.352 33.216 25.92 39.648 25.92 44.256C25.92 46.048 26.528 46.944 27.744 46.944C29.088 46.944 31.136 45.92 33.888 43.872C37.664 41.056 41.216 37.312 44.544 32.64C45.248 31.68 45.888 31.2 46.464 31.2C46.656 31.2 46.752 31.264 46.752 31.392C46.752 31.712 46.464 32.32 45.888 33.216C43.136 37.44 39.936 41.152 36.288 44.352C33.408 46.848 31.168 48.32 29.568 48.768C28.928 48.96 28.256 49.056 27.552 49.056ZM9.312 46.944C10.848 47.584 14.112 44.736 19.104 38.4C21.024 35.968 22.688 33.792 24.096 31.872C25.504 29.888 26.656 28.128 27.552 26.592C27.808 26.08 28.192 25.376 28.704 24.48C29.28 23.52 29.984 22.4 30.816 21.12C30.624 21.056 30.4 21.024 30.144 21.024C29.952 21.024 29.76 21.024 29.568 21.024C26.944 21.024 24.128 22.016 21.12 24C18.112 25.92 15.296 28.576 12.672 31.968C10.816 34.336 9.472 36.512 8.64 38.496C7.872 40.48 7.488 42.208 7.488 43.68C7.488 45.408 8.096 46.496 9.312 46.944ZM39.2193 49.152C38.3233 49.152 37.8753 48.864 37.8753 48.288C37.8753 48.224 37.9393 48 38.0673 47.616C41.0753 41.856 44.6273 33.632 48.7233 22.944C49.1713 21.792 49.9393 20.8 51.0273 19.968C52.1153 19.072 53.0433 18.624 53.8113 18.624C54.6433 18.624 54.9953 19.072 54.8673 19.968C54.2273 21.312 53.4593 23.04 52.5633 25.152C51.6673 27.264 50.6113 29.728 49.3953 32.544C51.1873 30.176 53.8433 27.52 57.3633 24.576C59.1553 23.104 60.6913 21.888 61.9713 20.928C63.3153 19.968 64.4353 19.264 65.3313 18.816C66.2273 18.368 67.2193 18.144 68.3073 18.144C69.5873 18.144 70.6753 18.464 71.5713 19.104C72.4673 19.744 72.9153 20.48 72.9153 21.312C72.9153 21.824 72.6593 22.4 72.1473 23.04C71.6993 23.616 71.2193 23.904 70.7073 23.904C70.4513 23.904 69.9073 23.648 69.0753 23.136C68.3073 22.56 67.4753 22.272 66.5793 22.272C65.6193 22.272 64.4993 22.56 63.2193 23.136C55.0913 26.784 48.0833 35.008 42.1953 47.808C41.8113 48.704 40.8193 49.152 39.2193 49.152ZM73.3145 48.768C71.4585 48.768 69.8265 48.32 68.4185 47.424C66.5625 46.144 65.6345 44.288 65.6345 41.856C65.6345 39.232 66.7545 36.032 68.9945 32.256C72.0025 27.328 76.4185 23.008 82.2425 19.296C83.7145 18.336 85.1865 17.856 86.6585 17.856C88.5785 17.856 89.9545 18.464 90.7865 19.68C91.2985 20.384 91.5545 21.184 91.5545 22.08C91.5545 24.768 89.3785 27.712 85.0265 30.912C83.7465 31.808 82.3705 32.64 80.8985 33.408C79.4905 34.112 77.9545 34.624 76.2905 34.944L72.1625 35.808C70.6265 38.56 69.8585 40.864 69.8585 42.72C69.8585 45.28 71.3625 46.56 74.3705 46.56C76.7385 46.56 79.6185 45.568 83.0105 43.584C87.5545 40.96 91.4585 37.312 94.7225 32.64C95.2345 31.872 95.7145 31.488 96.1625 31.488C96.3545 31.488 96.4505 31.616 96.4505 31.872C96.4505 32.192 96.2265 32.672 95.7785 33.312C89.5705 42.656 82.5625 47.776 74.7545 48.672C74.4985 48.736 74.2425 48.768 73.9865 48.768C73.7945 48.768 73.5705 48.768 73.3145 48.768ZM73.3145 34.176C75.1065 34.176 77.4105 33.376 80.2265 31.776C84.1945 29.536 86.9785 26.656 88.5785 23.136C89.0265 22.24 89.2505 21.504 89.2505 20.928C89.2505 20.352 89.0265 20.064 88.5785 20.064C87.7465 20.064 86.0505 21.088 83.4905 23.136C81.6345 24.736 79.8105 26.464 78.0185 28.32C76.2905 30.112 74.6265 32.032 73.0265 34.08C72.9625 34.144 73.0585 34.176 73.3145 34.176ZM92.856 51.936C92.6 51.936 92.472 51.84 92.472 51.648C92.472 50.816 94.648 49.28 99 47.04C100.088 46.528 101.08 46.016 101.976 45.504C102.872 44.928 103.64 44.416 104.28 43.968C108.184 41.088 110.136 38.592 110.136 36.48C110.136 34.88 108.568 34.08 105.432 34.08C98.136 33.952 94.488 32.352 94.488 29.28C94.488 27.936 95.064 26.656 96.216 25.44C97.56 23.904 99.8 22.432 102.936 21.024C106.328 19.488 109.432 18.72 112.248 18.72C114.744 18.72 116.632 19.328 117.912 20.544C118.488 21.12 118.776 21.824 118.776 22.656C118.776 23.552 118.488 24.352 117.912 25.056C117.336 25.76 116.696 26.112 115.992 26.112C114.712 26.112 114.008 25.248 113.88 23.52C113.88 22.304 113.688 21.6 113.304 21.408C112.92 21.216 111.896 21.12 110.232 21.12C108.12 21.12 105.752 21.824 103.128 23.232C99.992 24.832 98.52 26.752 98.712 28.992C98.84 30.272 101.272 30.912 106.008 30.912C112.472 30.912 115.704 32.48 115.704 35.616C115.704 39.008 112.92 42.4 107.352 45.792C103.832 47.968 99.544 49.888 94.488 51.552C93.784 51.808 93.24 51.936 92.856 51.936ZM123.669 51.936C123.413 51.936 123.285 51.84 123.285 51.648C123.285 50.816 125.461 49.28 129.812 47.04C130.901 46.528 131.893 46.016 132.789 45.504C133.685 44.928 134.453 44.416 135.093 43.968C138.997 41.088 140.949 38.592 140.949 36.48C140.949 34.88 139.381 34.08 136.245 34.08C128.949 33.952 125.301 32.352 125.301 29.28C125.301 27.936 125.877 26.656 127.029 25.44C128.373 23.904 130.613 22.432 133.749 21.024C137.141 19.488 140.245 18.72 143.061 18.72C145.557 18.72 147.445 19.328 148.725 20.544C149.301 21.12 149.589 21.824 149.589 22.656C149.589 23.552 149.301 24.352 148.725 25.056C148.149 25.76 147.509 26.112 146.805 26.112C145.525 26.112 144.821 25.248 144.693 23.52C144.693 22.304 144.501 21.6 144.117 21.408C143.733 21.216 142.709 21.12 141.045 21.12C138.933 21.12 136.565 21.824 133.941 23.232C130.805 24.832 129.333 26.752 129.525 28.992C129.653 30.272 132.085 30.912 136.821 30.912C143.285 30.912 146.517 32.48 146.517 35.616C146.517 39.008 143.733 42.4 138.165 45.792C134.645 47.968 130.357 49.888 125.301 51.552C124.597 51.808 124.053 51.936 123.669 51.936ZM181.46 48.768C180.116 48.768 178.74 48.448 177.332 47.808C175.988 47.168 174.836 46.208 173.876 44.928C172.916 43.584 172.436 41.984 172.436 40.128C172.436 37.568 173.396 34.656 175.316 31.392C177.236 28.128 179.764 25.248 182.9 22.752C184.884 21.152 186.548 20.064 187.892 19.488C189.812 18.656 191.636 18.24 193.364 18.24C195.54 18.24 197.236 18.944 198.452 20.352C199.092 20.992 199.412 21.664 199.412 22.368C199.412 23.52 198.868 24.096 197.78 24.096C197.012 24.096 196.436 23.616 196.052 22.656C195.604 21.312 194.644 20.64 193.172 20.64C191.38 20.64 189.364 21.632 187.124 23.616C184.628 25.6 182.356 28.32 180.308 31.776C178.068 35.488 176.948 38.752 176.948 41.568C176.948 44.32 177.78 46.048 179.444 46.752C180.02 47.008 180.756 47.136 181.652 47.136C184.724 47.136 188.212 45.856 192.116 43.296C196.404 40.544 200.084 36.992 203.156 32.64C203.86 31.68 204.5 31.2 205.076 31.2C205.268 31.2 205.364 31.264 205.364 31.392C205.364 31.712 205.076 32.32 204.5 33.216C201.556 37.76 197.428 41.664 192.116 44.928C189.684 46.4 187.732 47.424 186.26 48C184.852 48.512 183.252 48.768 181.46 48.768ZM206.884 49.056C202.212 49.056 199.876 46.176 199.876 40.416C199.876 34.656 202.18 29.152 206.788 23.904C206.852 23.84 206.82 23.616 206.692 23.232C206.564 22.784 206.5 22.464 206.5 22.272C206.5 21.888 206.628 21.6 206.884 21.408C209.124 19.616 211.748 18.72 214.756 18.72C215.588 18.72 216.26 18.88 216.772 19.2C217.412 19.456 218.02 19.712 218.596 19.968C219.172 20.224 219.716 20.512 220.228 20.832C222.66 22.304 224.356 23.84 225.316 25.44C226.916 25.376 228.26 25.312 229.348 25.248C230.436 25.184 231.268 25.12 231.844 25.056H232.228C232.804 25.056 233.092 25.28 233.092 25.728C233.092 25.856 232.964 25.952 232.708 26.016C232.004 26.144 231.076 26.304 229.924 26.496C228.836 26.688 227.492 26.88 225.892 27.072C226.084 27.52 226.18 28.032 226.18 28.608C226.18 29.056 226.148 29.376 226.084 29.568C225.124 34.752 222.596 39.296 218.5 43.2C214.532 47.104 210.66 49.056 206.884 49.056ZM223.012 25.44C221.988 23.84 219.972 23.04 216.964 23.04C214.66 23.04 213.156 23.296 212.452 23.808C212.26 23.872 212.068 24 211.876 24.192C211.684 24.384 211.46 24.608 211.204 24.864C214.788 25.312 218.724 25.504 223.012 25.44ZM207.172 47.52C209.988 47.52 213.22 45.504 216.868 41.472C220.58 37.44 222.788 33.536 223.492 29.76C223.556 29.44 223.588 29.184 223.588 28.992C223.652 28.736 223.684 28.512 223.684 28.32C223.684 27.936 223.62 27.552 223.492 27.168C222.276 27.232 221.028 27.264 219.748 27.264C218.468 27.264 217.188 27.264 215.908 27.264C214.628 27.264 213.444 27.264 212.356 27.264C211.332 27.264 210.404 27.232 209.572 27.168C207.012 30.624 205.412 33.408 204.772 35.52C204.004 37.888 203.62 40.16 203.62 42.336C203.62 45.792 204.804 47.52 207.172 47.52ZM252.396 49.056C251.18 49.056 250.028 48.736 248.94 48.096C247.916 47.52 247.244 46.88 246.924 46.176C246.732 45.664 246.636 44.992 246.636 44.16C246.636 43.072 246.764 41.824 247.02 40.416C247.276 38.944 247.66 37.376 248.172 35.712C247.724 36.544 247.084 37.504 246.252 38.592C245.484 39.68 244.524 40.96 243.372 42.432C239.916 46.528 237.1 48.576 234.924 48.576C234.604 48.576 234.348 48.544 234.156 48.48C230.316 47.584 228.396 45.408 228.396 41.952C228.396 39.2 229.708 35.68 232.332 31.392C233.996 28.768 236.524 26.24 239.916 23.808C244.268 20.608 248.396 19.008 252.3 19.008C253.772 19.008 255.148 19.232 256.428 19.68L259.308 14.496C260.78 11.872 261.996 9.504 262.956 7.392C263.98 5.28 264.812 3.456 265.452 1.92C265.964 0.767998 267.756 0.191998 270.828 0.191998C272.236 0.191998 272.844 0.351997 272.652 0.671997L259.98 21.696C260.236 22.08 260.3 22.528 260.172 23.04C260.108 23.424 259.948 23.488 259.692 23.232L259.308 22.848L258.06 24.96C253.196 33.216 250.764 39.648 250.764 44.256C250.764 46.048 251.372 46.944 252.588 46.944C253.932 46.944 255.98 45.92 258.732 43.872C262.508 41.056 266.06 37.312 269.388 32.64C270.092 31.68 270.732 31.2 271.308 31.2C271.5 31.2 271.596 31.264 271.596 31.392C271.596 31.712 271.308 32.32 270.732 33.216C267.98 37.44 264.78 41.152 261.132 44.352C258.252 46.848 256.012 48.32 254.412 48.768C253.772 48.96 253.1 49.056 252.396 49.056ZM234.156 46.944C235.692 47.584 238.956 44.736 243.948 38.4C245.868 35.968 247.532 33.792 248.94 31.872C250.348 29.888 251.5 28.128 252.396 26.592C252.652 26.08 253.036 25.376 253.548 24.48C254.124 23.52 254.828 22.4 255.66 21.12C255.468 21.056 255.244 21.024 254.988 21.024C254.796 21.024 254.604 21.024 254.412 21.024C251.788 21.024 248.972 22.016 245.964 24C242.956 25.92 240.14 28.576 237.516 31.968C235.66 34.336 234.316 36.512 233.484 38.496C232.716 40.48 232.332 42.208 232.332 43.68C232.332 45.408 232.94 46.496 234.156 46.944ZM272.127 48.768C270.271 48.768 268.639 48.32 267.231 47.424C265.375 46.144 264.447 44.288 264.447 41.856C264.447 39.232 265.567 36.032 267.807 32.256C270.815 27.328 275.231 23.008 281.055 19.296C282.527 18.336 283.999 17.856 285.471 17.856C287.391 17.856 288.767 18.464 289.599 19.68C290.111 20.384 290.367 21.184 290.367 22.08C290.367 24.768 288.191 27.712 283.839 30.912C282.559 31.808 281.183 32.64 279.711 33.408C278.303 34.112 276.767 34.624 275.103 34.944L270.975 35.808C269.439 38.56 268.671 40.864 268.671 42.72C268.671 45.28 270.175 46.56 273.183 46.56C275.551 46.56 278.431 45.568 281.823 43.584C286.367 40.96 290.271 37.312 293.535 32.64C294.047 31.872 294.527 31.488 294.975 31.488C295.167 31.488 295.263 31.616 295.263 31.872C295.263 32.192 295.039 32.672 294.591 33.312C288.383 42.656 281.375 47.776 273.567 48.672C273.311 48.736 273.055 48.768 272.799 48.768C272.607 48.768 272.383 48.768 272.127 48.768ZM272.127 34.176C273.919 34.176 276.223 33.376 279.039 31.776C283.007 29.536 285.791 26.656 287.391 23.136C287.839 22.24 288.063 21.504 288.063 20.928C288.063 20.352 287.839 20.064 287.391 20.064C286.559 20.064 284.863 21.088 282.303 23.136C280.447 24.736 278.623 26.464 276.831 28.32C275.103 30.112 273.439 32.032 271.839 34.08C271.775 34.144 271.871 34.176 272.127 34.176Z" fill="#E2E3DA"/>
<path d="M10.48 49V26.12H20.84C23.4533 26.12 25.7067 26.5867 27.6 27.52C29.52 28.4533 31 29.7867 32.04 31.52C33.1067 33.2267 33.64 35.24 33.64 37.56C33.64 39.9067 33.1067 41.9333 32.04 43.64C31 45.3467 29.52 46.6667 27.6 47.6C25.7067 48.5333 23.4533 49 20.84 49H10.48ZM15.52 44.92H20.68C22.3067 44.92 23.7067 44.6267 24.88 44.04C26.0533 43.4533 26.96 42.6133 27.6 41.52C28.24 40.4267 28.56 39.1067 28.56 37.56C28.56 36.0133 28.24 34.6933 27.6 33.6C26.96 32.5067 26.0533 31.68 24.88 31.12C23.7067 30.5333 22.3067 30.24 20.68 30.24H15.52V44.92ZM43.7222 49V26.12H53.6022C55.6555 26.12 57.4289 26.4533 58.9222 27.12C60.4155 27.76 61.5622 28.6933 62.3622 29.92C63.1889 31.1467 63.6022 32.6267 63.6022 34.36C63.6022 36.0667 63.1889 37.5333 62.3622 38.76C61.5622 39.9867 60.4155 40.92 58.9222 41.56C57.4289 42.2 55.6555 42.52 53.6022 42.52H46.5222L48.7622 40.32V49H43.7222ZM58.6022 49L52.7222 40.68H58.1622L64.0422 49H58.6022ZM48.7622 40.92L46.9222 38.56H53.2422C55.0022 38.56 56.3222 38.2 57.2022 37.48C58.0822 36.7333 58.5222 35.6933 58.5222 34.36C58.5222 33.0267 58.0822 32 57.2022 31.28C56.3222 30.56 55.0022 30.2 53.2422 30.2H46.9222L48.7622 27.88V40.92ZM78.5509 35.44H90.1509V39.36H78.5509V35.44ZM79.2309 44.96H91.9509V49H74.1909V26.12H91.5109V30.2H79.2309V44.96ZM119.08 42.24C119.08 43.68 118.68 44.9333 117.88 46C117.106 47.0667 116 47.9067 114.56 48.52C113.12 49.1067 111.36 49.4 109.28 49.4C107.493 49.4 105.733 49.16 104 48.68C102.293 48.2 100.92 47.5733 99.8797 46.8L101.76 42.88C102.72 43.6 103.893 44.1733 105.28 44.6C106.666 45.0267 108.08 45.24 109.52 45.24C111.226 45.24 112.413 44.9867 113.08 44.48C113.746 43.9733 114.08 43.3733 114.08 42.68C114.08 42.04 113.826 41.5333 113.32 41.16C112.84 40.7867 112.186 40.4933 111.36 40.28C110.56 40.04 109.68 39.8267 108.72 39.64C107.76 39.4267 106.8 39.1867 105.84 38.92C104.88 38.6533 104 38.28 103.2 37.8C102.4 37.32 101.746 36.68 101.24 35.88C100.76 35.08 100.52 34.0667 100.52 32.84C100.52 31.4267 100.92 30.1867 101.72 29.12C102.52 28.0533 103.64 27.2267 105.08 26.64C106.546 26.0533 108.266 25.76 110.24 25.76C111.653 25.76 113.066 25.92 114.48 26.24C115.92 26.5333 117.173 27.0267 118.24 27.72L116.52 31.64C115.506 30.9733 114.44 30.52 113.32 30.28C112.226 30.0133 111.146 29.88 110.08 29.88C108.48 29.88 107.32 30.1333 106.6 30.64C105.906 31.1467 105.56 31.7867 105.56 32.56C105.56 33.2 105.8 33.7067 106.28 34.08C106.786 34.4533 107.44 34.76 108.24 35C109.04 35.2133 109.92 35.4133 110.88 35.6C111.866 35.7867 112.826 36.0267 113.76 36.32C114.72 36.5867 115.6 36.96 116.4 37.44C117.226 37.8933 117.88 38.5067 118.36 39.28C118.84 40.0533 119.08 41.04 119.08 42.24ZM145.72 42.24C145.72 43.68 145.32 44.9333 144.52 46C143.747 47.0667 142.64 47.9067 141.2 48.52C139.76 49.1067 138 49.4 135.92 49.4C134.134 49.4 132.374 49.16 130.64 48.68C128.934 48.2 127.56 47.5733 126.52 46.8L128.4 42.88C129.36 43.6 130.534 44.1733 131.92 44.6C133.307 45.0267 134.72 45.24 136.16 45.24C137.867 45.24 139.054 44.9867 139.72 44.48C140.387 43.9733 140.72 43.3733 140.72 42.68C140.72 42.04 140.467 41.5333 139.96 41.16C139.48 40.7867 138.827 40.4933 138 40.28C137.2 40.04 136.32 39.8267 135.36 39.64C134.4 39.4267 133.44 39.1867 132.48 38.92C131.52 38.6533 130.64 38.28 129.84 37.8C129.04 37.32 128.387 36.68 127.88 35.88C127.4 35.08 127.16 34.0667 127.16 32.84C127.16 31.4267 127.56 30.1867 128.36 29.12C129.16 28.0533 130.28 27.2267 131.72 26.64C133.187 26.0533 134.907 25.76 136.88 25.76C138.294 25.76 139.707 25.92 141.12 26.24C142.56 26.5333 143.814 27.0267 144.88 27.72L143.16 31.64C142.147 30.9733 141.08 30.52 139.96 30.28C138.867 30.0133 137.787 29.88 136.72 29.88C135.12 29.88 133.96 30.1333 133.24 30.64C132.547 31.1467 132.2 31.7867 132.2 32.56C132.2 33.2 132.44 33.7067 132.92 34.08C133.427 34.4533 134.08 34.76 134.88 35C135.68 35.2133 136.56 35.4133 137.52 35.6C138.507 35.7867 139.467 36.0267 140.4 36.32C141.36 36.5867 142.24 36.96 143.04 37.44C143.867 37.8933 144.52 38.5067 145 39.28C145.48 40.0533 145.72 41.04 145.72 42.24ZM182.176 49.4C179.776 49.4 177.629 48.8933 175.736 47.88C173.842 46.84 172.349 45.4267 171.256 43.64C170.162 41.8533 169.616 39.8267 169.616 37.56C169.616 35.2933 170.162 33.28 171.256 31.52C172.349 29.7333 173.842 28.3333 175.736 27.32C177.629 26.28 179.776 25.76 182.176 25.76C184.256 25.76 186.069 26.08 187.616 26.72C189.189 27.3333 190.522 28.3067 191.616 29.64L188.336 32.76C187.536 31.8267 186.629 31.1467 185.616 30.72C184.602 30.2667 183.509 30.04 182.336 30.04C180.869 30.04 179.549 30.36 178.376 31C177.229 31.64 176.322 32.5333 175.656 33.68C175.016 34.8 174.696 36.0933 174.696 37.56C174.696 39.0267 175.016 40.3333 175.656 41.48C176.322 42.6267 177.229 43.52 178.376 44.16C179.549 44.8 180.869 45.12 182.336 45.12C183.509 45.12 184.602 44.8933 185.616 44.44C186.629 43.9867 187.536 43.2933 188.336 42.36L191.616 45.52C190.522 46.8267 189.189 47.8 187.616 48.44C186.042 49.08 184.229 49.4 182.176 49.4ZM211.357 49.4C208.931 49.4 206.757 48.8933 204.837 47.88C202.944 46.84 201.451 45.4267 200.357 43.64C199.264 41.8533 198.717 39.8267 198.717 37.56C198.717 35.2933 199.264 33.28 200.357 31.52C201.451 29.7333 202.944 28.3333 204.837 27.32C206.757 26.28 208.917 25.76 211.317 25.76C213.744 25.76 215.904 26.28 217.797 27.32C219.717 28.3333 221.224 29.7333 222.317 31.52C223.411 33.28 223.957 35.2933 223.957 37.56C223.957 39.8267 223.411 41.8533 222.317 43.64C221.224 45.4267 219.717 46.84 217.797 47.88C215.904 48.8933 213.757 49.4 211.357 49.4ZM211.317 45.12C212.784 45.12 214.077 44.8 215.197 44.16C216.344 43.4933 217.237 42.5867 217.877 41.44C218.517 40.2933 218.837 39 218.837 37.56C218.837 36.0933 218.504 34.8 217.837 33.68C217.197 32.5333 216.317 31.64 215.197 31C214.077 30.36 212.797 30.04 211.357 30.04C209.917 30.04 208.624 30.36 207.477 31C206.331 31.64 205.424 32.5333 204.757 33.68C204.117 34.8 203.797 36.0933 203.797 37.56C203.797 39 204.117 40.2933 204.757 41.44C205.424 42.5867 206.331 43.4933 207.477 44.16C208.624 44.8 209.904 45.12 211.317 45.12ZM233.996 49V26.12H244.356C246.969 26.12 249.222 26.5867 251.116 27.52C253.036 28.4533 254.516 29.7867 255.556 31.52C256.622 33.2267 257.156 35.24 257.156 37.56C257.156 39.9067 256.622 41.9333 255.556 43.64C254.516 45.3467 253.036 46.6667 251.116 47.6C249.222 48.5333 246.969 49 244.356 49H233.996ZM239.036 44.92H244.196C245.822 44.92 247.222 44.6267 248.396 44.04C249.569 43.4533 250.476 42.6133 251.116 41.52C251.756 40.4267 252.076 39.1067 252.076 37.56C252.076 36.0133 251.756 34.6933 251.116 33.6C250.476 32.5067 249.569 31.68 248.396 31.12C247.222 30.5333 245.822 30.24 244.196 30.24H239.036V44.92ZM271.598 35.44H283.198V39.36H271.598V35.44ZM272.278 44.96H284.998V49H267.238V26.12H284.558V30.2H272.278V44.96Z" fill="black" fill-opacity="0.81"/>
</svg>
