<svg width="235" height="54" viewBox="0 0 235 54" fill="none" xmlns="http://www.w3.org/2000/svg">
<path d="M12.096 52.824C7.552 51.864 5.28 49.752 5.28 46.488C5.28 44.568 5.888 41.784 7.104 38.136C8 35.384 9.216 32.248 10.752 28.728C12.352 25.144 14.336 21.176 16.704 16.824C22.4 6.136 26.72 0.567999 29.664 0.119997C29.92 0.0559978 30.336 0.0239983 30.912 0.0239983C34.048 0.0239983 35.616 1.496 35.616 4.44C35.616 8.472 32.224 14.2 25.44 21.624C21.664 25.848 17.504 29.592 12.96 32.856C10.272 39.256 8.928 43.96 8.928 46.968C8.928 48.952 9.536 50.136 10.752 50.52C11.712 50.776 13.952 49.624 17.472 47.064C21.504 44.12 24.96 40.536 27.84 36.312C28.288 35.672 28.704 35.352 29.088 35.352C29.344 35.352 29.472 35.48 29.472 35.736C29.472 35.992 29.312 36.376 28.992 36.888C26.56 40.792 23.392 44.504 19.488 48.024C15.712 51.48 13.248 53.08 12.096 52.824ZM14.016 30.264C16.32 28.536 18.24 26.808 19.776 25.08L25.44 18.36C30.688 12.152 33.312 7.576 33.312 4.632C33.312 4.056 32.992 3.768 32.352 3.768C31.264 3.768 29.536 5.336 27.168 8.472C26.464 9.496 25.728 10.488 24.96 11.448C24.192 12.408 23.424 13.4 22.656 14.424C21.696 15.832 20.8 17.208 19.968 18.552C19.2 19.896 18.464 21.272 17.76 22.68C17.568 22.936 17.152 23.704 16.512 24.984C15.936 26.264 15.104 28.024 14.016 30.264ZM32.134 52.056C27.462 52.056 25.126 49.176 25.126 43.416C25.126 37.656 27.43 32.152 32.038 26.904C32.102 26.84 32.07 26.616 31.942 26.232C31.814 25.784 31.75 25.464 31.75 25.272C31.75 24.888 31.878 24.6 32.134 24.408C34.374 22.616 36.998 21.72 40.006 21.72C40.838 21.72 41.51 21.88 42.022 22.2C42.662 22.456 43.27 22.712 43.846 22.968C44.422 23.224 44.966 23.512 45.478 23.832C47.91 25.304 49.606 26.84 50.566 28.44C52.166 28.376 53.51 28.312 54.598 28.248C55.686 28.184 56.518 28.12 57.094 28.056H57.478C58.054 28.056 58.342 28.28 58.342 28.728C58.342 28.856 58.214 28.952 57.958 29.016C57.254 29.144 56.326 29.304 55.174 29.496C54.086 29.688 52.742 29.88 51.142 30.072C51.334 30.52 51.43 31.032 51.43 31.608C51.43 32.056 51.398 32.376 51.334 32.568C50.374 37.752 47.846 42.296 43.75 46.2C39.782 50.104 35.91 52.056 32.134 52.056ZM48.262 28.44C47.238 26.84 45.222 26.04 42.214 26.04C39.91 26.04 38.406 26.296 37.702 26.808C37.51 26.872 37.318 27 37.126 27.192C36.934 27.384 36.71 27.608 36.454 27.864C40.038 28.312 43.974 28.504 48.262 28.44ZM32.422 50.52C35.238 50.52 38.47 48.504 42.118 44.472C45.83 40.44 48.038 36.536 48.742 32.76C48.806 32.44 48.838 32.184 48.838 31.992C48.902 31.736 48.934 31.512 48.934 31.32C48.934 30.936 48.87 30.552 48.742 30.168C47.526 30.232 46.278 30.264 44.998 30.264C43.718 30.264 42.438 30.264 41.158 30.264C39.878 30.264 38.694 30.264 37.606 30.264C36.582 30.264 35.654 30.232 34.822 30.168C32.262 33.624 30.662 36.408 30.022 38.52C29.254 40.888 28.87 43.16 28.87 45.336C28.87 48.792 30.054 50.52 32.422 50.52ZM64.3978 51.768C63.0538 51.768 61.6778 51.448 60.2698 50.808C58.9258 50.168 57.7738 49.208 56.8138 47.928C55.8538 46.584 55.3738 44.984 55.3738 43.128C55.3738 40.568 56.3338 37.656 58.2538 34.392C60.1738 31.128 62.7018 28.248 65.8378 25.752C67.8218 24.152 69.4858 23.064 70.8298 22.488C72.7498 21.656 74.5738 21.24 76.3018 21.24C78.4778 21.24 80.1738 21.944 81.3898 23.352C82.0298 23.992 82.3498 24.664 82.3498 25.368C82.3498 26.52 81.8058 27.096 80.7178 27.096C79.9498 27.096 79.3738 26.616 78.9898 25.656C78.5418 24.312 77.5818 23.64 76.1098 23.64C74.3178 23.64 72.3018 24.632 70.0618 26.616C67.5658 28.6 65.2938 31.32 63.2458 34.776C61.0058 38.488 59.8858 41.752 59.8858 44.568C59.8858 47.32 60.7178 49.048 62.3818 49.752C62.9578 50.008 63.6938 50.136 64.5898 50.136C67.6618 50.136 71.1498 48.856 75.0538 46.296C79.3418 43.544 83.0218 39.992 86.0938 35.64C86.7978 34.68 87.4378 34.2 88.0138 34.2C88.2058 34.2 88.3018 34.264 88.3018 34.392C88.3018 34.712 88.0138 35.32 87.4378 36.216C84.4938 40.76 80.3658 44.664 75.0538 47.928C72.6218 49.4 70.6698 50.424 69.1978 51C67.7898 51.512 66.1898 51.768 64.3978 51.768ZM104.318 52.056C103.038 52.056 101.854 51.64 100.766 50.808C99.7415 49.976 99.1335 49.176 98.9415 48.408C98.7495 47.512 99.9335 44.312 102.494 38.808L100.286 41.976C99.3255 43.384 98.3655 44.632 97.4055 45.72C96.4455 46.808 95.5495 47.768 94.7175 48.6C92.2855 50.904 90.2375 51.864 88.5735 51.48C84.7335 50.584 82.8135 48.408 82.8135 44.952C82.8135 42.2 84.1255 38.68 86.7495 34.392C87.5815 33.112 88.6375 31.832 89.9175 30.552C91.1975 29.272 92.6695 28.024 94.3335 26.808C98.6215 23.672 102.75 22.104 106.718 22.104C109.15 22.104 111.454 22.744 113.63 24.024C114.334 24.536 114.686 25.08 114.686 25.656C114.686 26.104 114.558 26.328 114.302 26.328C114.238 26.328 114.174 26.296 114.11 26.232C112.766 24.76 110.974 24.024 108.734 24.024C106.11 24.024 103.262 25.016 100.19 27C97.1175 28.984 94.3655 31.64 91.9335 34.968C88.4775 39.768 86.7495 43.672 86.7495 46.68C86.7495 48.408 87.3575 49.496 88.5735 49.944C90.1095 50.584 93.3735 47.736 98.3655 41.4C100.414 38.904 102.11 36.664 103.454 34.68C104.862 32.696 105.982 31 106.814 29.592C107.198 28.888 107.902 28.536 108.926 28.536C110.846 28.536 111.806 29.112 111.806 30.264C111.806 30.456 111.774 30.584 111.71 30.648C106.142 39.48 103.358 45.464 103.358 48.6C103.358 49.368 103.582 49.784 104.03 49.848C105.374 50.232 107.614 49.24 110.75 46.872C114.526 44.056 118.078 40.312 121.406 35.64C122.11 34.68 122.75 34.2 123.326 34.2C123.518 34.2 123.614 34.264 123.614 34.392C123.614 34.712 123.326 35.32 122.75 36.216C121.406 38.328 119.902 40.312 118.238 42.168C116.638 44.024 114.846 45.752 112.862 47.352C110.046 49.72 107.742 51.192 105.95 51.768C105.502 51.96 104.958 52.056 104.318 52.056ZM125.049 52.632C120.121 51.544 117.657 49.304 117.657 45.912C117.657 44.952 117.817 43.832 118.137 42.552C118.457 41.208 118.969 39.736 119.673 38.136L127.833 19.8C126.873 19.928 125.817 20.056 124.665 20.184C123.513 20.312 122.233 20.44 120.825 20.568C120.569 20.568 120.441 20.344 120.441 19.896C120.441 19 120.601 18.488 120.921 18.36L128.985 17.208L135.225 4.536C135.801 3.384 137.593 2.808 140.601 2.808C142.009 2.808 142.617 2.968 142.425 3.288C141.017 5.528 139.577 7.8 138.105 10.104C136.697 12.344 135.289 14.584 133.881 16.824C134.073 16.76 134.489 16.696 135.129 16.632C135.769 16.568 136.601 16.504 137.625 16.44C138.393 16.376 139.129 16.344 139.833 16.344C140.537 16.28 141.209 16.248 141.849 16.248C144.537 16.248 145.817 16.376 145.689 16.632C145.241 17.08 140.889 17.944 132.633 19.224C125.657 32.408 122.169 41.72 122.169 47.16C122.169 49.144 122.745 50.328 123.897 50.712C124.793 50.968 127.065 49.784 130.713 47.16C132.825 45.624 134.745 43.96 136.473 42.168C138.201 40.312 139.769 38.36 141.177 36.312C141.625 35.672 142.041 35.352 142.425 35.352C142.681 35.352 142.809 35.48 142.809 35.736C142.809 35.992 142.649 36.376 142.329 36.888C139.897 40.792 136.665 44.472 132.633 47.928C128.729 51.32 126.201 52.888 125.049 52.632ZM158.478 17.304C157.454 17.432 156.334 17.304 155.118 16.92C153.966 16.536 153.39 16.056 153.39 15.48C153.39 15.096 153.518 14.712 153.774 14.328C154.03 13.88 154.35 13.432 154.734 12.984C155.822 11.64 156.462 10.808 156.654 10.488C156.846 10.104 157.198 9.912 157.71 9.912C159.182 9.912 160.334 10.616 161.166 12.024C161.23 12.088 161.262 12.216 161.262 12.408C161.262 12.984 160.942 13.816 160.302 14.904C159.47 16.44 158.862 17.24 158.478 17.304ZM143.982 51.96C140.27 51.128 138.414 49.656 138.414 47.544C138.414 46.52 139.662 42.904 142.158 36.696C142.862 35.48 143.79 33.72 144.942 31.416C146.158 29.048 147.662 26.168 149.454 22.776C149.774 22.264 150.478 22.008 151.566 22.008C152.526 22.008 153.454 22.168 154.35 22.488C155.31 22.744 155.694 23 155.502 23.256C147.054 35.224 142.83 43.512 142.83 48.12C142.83 49.464 143.278 50.136 144.174 50.136C145.902 50.136 148.622 48.92 152.334 46.488C156.75 43.48 160.462 39.864 163.47 35.64C164.11 34.616 164.75 34.104 165.39 34.104C165.582 34.104 165.678 34.2 165.678 34.392C165.678 34.712 165.39 35.32 164.814 36.216C161.998 40.632 158.094 44.536 153.102 47.928C148.622 51 145.582 52.344 143.982 51.96ZM168.572 52.056C163.9 52.056 161.564 49.176 161.564 43.416C161.564 37.656 163.868 32.152 168.476 26.904C168.54 26.84 168.508 26.616 168.38 26.232C168.252 25.784 168.188 25.464 168.188 25.272C168.188 24.888 168.316 24.6 168.572 24.408C170.812 22.616 173.436 21.72 176.444 21.72C177.276 21.72 177.948 21.88 178.46 22.2C179.1 22.456 179.708 22.712 180.284 22.968C180.86 23.224 181.404 23.512 181.916 23.832C184.348 25.304 186.044 26.84 187.004 28.44C188.604 28.376 189.948 28.312 191.036 28.248C192.124 28.184 192.956 28.12 193.532 28.056H193.916C194.492 28.056 194.78 28.28 194.78 28.728C194.78 28.856 194.652 28.952 194.396 29.016C193.692 29.144 192.764 29.304 191.612 29.496C190.524 29.688 189.18 29.88 187.58 30.072C187.772 30.52 187.868 31.032 187.868 31.608C187.868 32.056 187.836 32.376 187.772 32.568C186.812 37.752 184.284 42.296 180.188 46.2C176.22 50.104 172.348 52.056 168.572 52.056ZM184.7 28.44C183.676 26.84 181.66 26.04 178.652 26.04C176.348 26.04 174.844 26.296 174.14 26.808C173.948 26.872 173.756 27 173.564 27.192C173.372 27.384 173.148 27.608 172.892 27.864C176.476 28.312 180.412 28.504 184.7 28.44ZM168.859 50.52C171.676 50.52 174.908 48.504 178.556 44.472C182.268 40.44 184.476 36.536 185.18 32.76C185.244 32.44 185.276 32.184 185.276 31.992C185.34 31.736 185.372 31.512 185.372 31.32C185.372 30.936 185.308 30.552 185.18 30.168C183.964 30.232 182.716 30.264 181.436 30.264C180.156 30.264 178.876 30.264 177.596 30.264C176.316 30.264 175.132 30.264 174.044 30.264C173.02 30.264 172.092 30.232 171.26 30.168C168.7 33.624 167.1 36.408 166.46 38.52C165.692 40.888 165.308 43.16 165.308 45.336C165.308 48.792 166.492 50.52 168.859 50.52ZM212.451 51.96C211.043 52.088 209.699 51.736 208.419 50.904C207.139 50.008 206.499 49.016 206.499 47.928C206.499 45.944 208.387 42.136 212.163 36.504C216.323 30.296 218.403 26.712 218.403 25.752C218.403 25.176 218.115 24.856 217.539 24.792C215.683 24.92 212.803 26.776 208.899 30.36C203.331 35.544 198.115 42.584 193.251 51.48C193.123 51.608 192.771 51.672 192.195 51.672C189.443 51.672 188.195 51.288 188.451 50.52C189.155 48.664 190.371 45.88 192.099 42.168C193.891 38.456 196.195 33.784 199.011 28.152C200.931 24.376 202.883 22.488 204.867 22.488C205.507 22.488 205.923 22.648 206.115 22.968C206.243 23.16 204.899 25.912 202.083 31.224C200.739 33.784 199.683 35.832 198.915 37.368C198.147 38.84 197.603 39.8 197.283 40.248C198.371 39.16 199.651 37.816 201.123 36.216C202.659 34.616 204.419 32.76 206.403 30.648C209.539 27.128 212.995 24.504 216.771 22.776C217.667 22.392 218.691 22.2 219.843 22.2C222.467 22.2 223.779 23.16 223.779 25.08C223.779 26.296 223.171 27.736 221.955 29.4C215.043 39.064 211.587 45.56 211.587 48.888C211.587 49.592 211.811 50.04 212.259 50.232C213.283 50.68 215.811 49.624 219.843 47.064C224.579 43.992 228.611 40.184 231.939 35.64C232.643 34.68 233.283 34.2 233.859 34.2C234.051 34.2 234.147 34.264 234.147 34.392C234.147 34.712 233.859 35.32 233.283 36.216C230.467 40.632 226.563 44.536 221.571 47.928C217.091 50.872 214.051 52.216 212.451 51.96Z" fill="#E2E3DA"/>
<path d="M3.48 50V27.12H8.52V45.92H20.28V50H3.48ZM39.3181 50.4C36.8915 50.4 34.7181 49.8933 32.7981 48.88C30.9048 47.84 29.4115 46.4267 28.3181 44.64C27.2248 42.8533 26.6781 40.8267 26.6781 38.56C26.6781 36.2933 27.2248 34.28 28.3181 32.52C29.4115 30.7333 30.9048 29.3333 32.7981 28.32C34.7181 27.28 36.8781 26.76 39.2781 26.76C41.7048 26.76 43.8648 27.28 45.7581 28.32C47.6781 29.3333 49.1848 30.7333 50.2781 32.52C51.3715 34.28 51.9181 36.2933 51.9181 38.56C51.9181 40.8267 51.3715 42.8533 50.2781 44.64C49.1848 46.4267 47.6781 47.84 45.7581 48.88C43.8648 49.8933 41.7181 50.4 39.3181 50.4ZM39.2781 46.12C40.7448 46.12 42.0381 45.8 43.1581 45.16C44.3048 44.4933 45.1981 43.5867 45.8381 42.44C46.4781 41.2933 46.7981 40 46.7981 38.56C46.7981 37.0933 46.4648 35.8 45.7981 34.68C45.1581 33.5333 44.2781 32.64 43.1581 32C42.0381 31.36 40.7581 31.04 39.3181 31.04C37.8781 31.04 36.5848 31.36 35.4381 32C34.2915 32.64 33.3848 33.5333 32.7181 34.68C32.0781 35.8 31.7581 37.0933 31.7581 38.56C31.7581 40 32.0781 41.2933 32.7181 42.44C33.3848 43.5867 34.2915 44.4933 35.4381 45.16C36.5848 45.8 37.8648 46.12 39.2781 46.12ZM72.6366 50.4C70.2366 50.4 68.0899 49.8933 66.1966 48.88C64.3032 47.84 62.8099 46.4267 61.7166 44.64C60.6232 42.8533 60.0766 40.8267 60.0766 38.56C60.0766 36.2933 60.6232 34.28 61.7166 32.52C62.8099 30.7333 64.3032 29.3333 66.1966 28.32C68.0899 27.28 70.2366 26.76 72.6366 26.76C74.7166 26.76 76.5299 27.08 78.0766 27.72C79.6499 28.3333 80.9832 29.3067 82.0766 30.64L78.7966 33.76C77.9966 32.8267 77.0899 32.1467 76.0766 31.72C75.0632 31.2667 73.9699 31.04 72.7966 31.04C71.3299 31.04 70.0099 31.36 68.8366 32C67.6899 32.64 66.7832 33.5333 66.1166 34.68C65.4766 35.8 65.1566 37.0933 65.1566 38.56C65.1566 40.0267 65.4766 41.3333 66.1166 42.48C66.7832 43.6267 67.6899 44.52 68.8366 45.16C70.0099 45.8 71.3299 46.12 72.7966 46.12C73.9699 46.12 75.0632 45.8933 76.0766 45.44C77.0899 44.9867 77.9966 44.2933 78.7966 43.36L82.0766 46.52C80.9832 47.8267 79.6499 48.8 78.0766 49.44C76.5032 50.08 74.6899 50.4 72.6366 50.4ZM87.3781 50L97.7781 27.12H102.778L113.138 50H108.138L99.4181 29.68H101.098L92.2981 50H87.3781ZM92.5381 45.04L93.8981 41.2H105.818L107.178 45.04H92.5381ZM124.203 50V31.24H116.683V27.12H136.763V31.24H129.243V50H124.203ZM145.394 50V27.12H150.434V50H145.394ZM173.146 50.4C170.72 50.4 168.546 49.8933 166.626 48.88C164.733 47.84 163.24 46.4267 162.146 44.64C161.053 42.8533 160.506 40.8267 160.506 38.56C160.506 36.2933 161.053 34.28 162.146 32.52C163.24 30.7333 164.733 29.3333 166.626 28.32C168.546 27.28 170.706 26.76 173.106 26.76C175.533 26.76 177.693 27.28 179.586 28.32C181.506 29.3333 183.013 30.7333 184.106 32.52C185.2 34.28 185.746 36.2933 185.746 38.56C185.746 40.8267 185.2 42.8533 184.106 44.64C183.013 46.4267 181.506 47.84 179.586 48.88C177.693 49.8933 175.546 50.4 173.146 50.4ZM173.106 46.12C174.573 46.12 175.866 45.8 176.986 45.16C178.133 44.4933 179.026 43.5867 179.666 42.44C180.306 41.2933 180.626 40 180.626 38.56C180.626 37.0933 180.293 35.8 179.626 34.68C178.986 33.5333 178.106 32.64 176.986 32C175.866 31.36 174.586 31.04 173.146 31.04C171.706 31.04 170.413 31.36 169.266 32C168.12 32.64 167.213 33.5333 166.546 34.68C165.906 35.8 165.586 37.0933 165.586 38.56C165.586 40 165.906 41.2933 166.546 42.44C167.213 43.5867 168.12 44.4933 169.266 45.16C170.413 45.8 171.693 46.12 173.106 46.12ZM195.785 50V27.12H199.945L213.745 43.84H211.865V27.12H216.865V50H212.705L198.905 33.28H200.825V50H195.785Z" fill="black" fill-opacity="0.81"/>
</svg>
