<svg width="241" height="81" viewBox="0 0 241 81" fill="none" xmlns="http://www.w3.org/2000/svg">
<path d="M12.768 52.632C7.84 51.544 5.376 49.304 5.376 45.912C5.376 44.952 5.536 43.832 5.856 42.552C6.176 41.208 6.688 39.736 7.392 38.136L15.552 19.8C14.592 19.928 13.536 20.056 12.384 20.184C11.232 20.312 9.952 20.44 8.544 20.568C8.288 20.568 8.16 20.344 8.16 19.896C8.16 19 8.32 18.488 8.64 18.36L16.704 17.208L22.944 4.536C23.52 3.384 25.312 2.808 28.32 2.808C29.728 2.808 30.336 2.968 30.144 3.288C28.736 5.528 27.296 7.8 25.824 10.104C24.416 12.344 23.008 14.584 21.6 16.824C21.792 16.76 22.208 16.696 22.848 16.632C23.488 16.568 24.32 16.504 25.344 16.44C26.112 16.376 26.848 16.344 27.552 16.344C28.256 16.28 28.928 16.248 29.568 16.248C32.256 16.248 33.536 16.376 33.408 16.632C32.96 17.08 28.608 17.944 20.352 19.224C13.376 32.408 9.888 41.72 9.888 47.16C9.888 49.144 10.464 50.328 11.616 50.712C12.512 50.968 14.784 49.784 18.432 47.16C20.544 45.624 22.464 43.96 24.192 42.168C25.92 40.312 27.488 38.36 28.896 36.312C29.344 35.672 29.76 35.352 30.144 35.352C30.4 35.352 30.528 35.48 30.528 35.736C30.528 35.992 30.368 36.376 30.048 36.888C27.616 40.792 24.384 44.472 20.352 47.928C16.448 51.32 13.92 52.888 12.768 52.632ZM32.5645 51.768C30.7085 51.768 29.0765 51.32 27.6685 50.424C25.8125 49.144 24.8845 47.288 24.8845 44.856C24.8845 42.232 26.0045 39.032 28.2445 35.256C31.2525 30.328 35.6685 26.008 41.4925 22.296C42.9645 21.336 44.4365 20.856 45.9085 20.856C47.8285 20.856 49.2045 21.464 50.0365 22.68C50.5485 23.384 50.8045 24.184 50.8045 25.08C50.8045 27.768 48.6285 30.712 44.2765 33.912C42.9965 34.808 41.6205 35.64 40.1485 36.408C38.7405 37.112 37.2045 37.624 35.5405 37.944L31.4125 38.808C29.8765 41.56 29.1085 43.864 29.1085 45.72C29.1085 48.28 30.6125 49.56 33.6205 49.56C35.9885 49.56 38.8685 48.568 42.2605 46.584C46.8045 43.96 50.7085 40.312 53.9725 35.64C54.4845 34.872 54.9645 34.488 55.4125 34.488C55.6045 34.488 55.7005 34.616 55.7005 34.872C55.7005 35.192 55.4765 35.672 55.0285 36.312C48.8205 45.656 41.8125 50.776 34.0045 51.672C33.7485 51.736 33.4925 51.768 33.2365 51.768C33.0445 51.768 32.8205 51.768 32.5645 51.768ZM32.5645 37.176C34.3565 37.176 36.6605 36.376 39.4765 34.776C43.4445 32.536 46.2285 29.656 47.8285 26.136C48.2765 25.24 48.5005 24.504 48.5005 23.928C48.5005 23.352 48.2765 23.064 47.8285 23.064C46.9965 23.064 45.3005 24.088 42.7405 26.136C40.8845 27.736 39.0605 29.464 37.2685 31.32C35.5405 33.112 33.8765 35.032 32.2765 37.08C32.2125 37.144 32.3085 37.176 32.5645 37.176ZM58.346 52.824C53.802 51.864 51.53 49.752 51.53 46.488C51.53 44.568 52.138 41.784 53.354 38.136C54.25 35.384 55.466 32.248 57.002 28.728C58.602 25.144 60.586 21.176 62.954 16.824C68.65 6.136 72.97 0.567999 75.914 0.119997C76.17 0.0559978 76.586 0.0239983 77.162 0.0239983C80.298 0.0239983 81.866 1.496 81.866 4.44C81.866 8.472 78.474 14.2 71.69 21.624C67.914 25.848 63.754 29.592 59.21 32.856C56.522 39.256 55.178 43.96 55.178 46.968C55.178 48.952 55.786 50.136 57.002 50.52C57.962 50.776 60.202 49.624 63.722 47.064C67.754 44.12 71.21 40.536 74.09 36.312C74.538 35.672 74.954 35.352 75.338 35.352C75.594 35.352 75.722 35.48 75.722 35.736C75.722 35.992 75.562 36.376 75.242 36.888C72.81 40.792 69.642 44.504 65.738 48.024C61.962 51.48 59.498 53.08 58.346 52.824ZM60.266 30.264C62.57 28.536 64.49 26.808 66.026 25.08L71.69 18.36C76.938 12.152 79.562 7.576 79.562 4.632C79.562 4.056 79.242 3.768 78.602 3.768C77.514 3.768 75.786 5.336 73.418 8.472C72.714 9.496 71.978 10.488 71.21 11.448C70.442 12.408 69.674 13.4 68.906 14.424C67.946 15.832 67.05 17.208 66.218 18.552C65.45 19.896 64.714 21.272 64.01 22.68C63.818 22.936 63.402 23.704 62.762 24.984C62.186 26.264 61.354 28.024 60.266 30.264ZM76.752 51.768C74.896 51.768 73.264 51.32 71.856 50.424C70 49.144 69.072 47.288 69.072 44.856C69.072 42.232 70.192 39.032 72.432 35.256C75.44 30.328 79.856 26.008 85.68 22.296C87.152 21.336 88.624 20.856 90.096 20.856C92.016 20.856 93.392 21.464 94.224 22.68C94.736 23.384 94.992 24.184 94.992 25.08C94.992 27.768 92.816 30.712 88.464 33.912C87.184 34.808 85.808 35.64 84.336 36.408C82.928 37.112 81.392 37.624 79.728 37.944L75.6 38.808C74.064 41.56 73.296 43.864 73.296 45.72C73.296 48.28 74.8 49.56 77.808 49.56C80.176 49.56 83.056 48.568 86.448 46.584C90.992 43.96 94.896 40.312 98.16 35.64C98.672 34.872 99.152 34.488 99.6 34.488C99.792 34.488 99.888 34.616 99.888 34.872C99.888 35.192 99.664 35.672 99.216 36.312C93.008 45.656 86 50.776 78.192 51.672C77.936 51.736 77.68 51.768 77.424 51.768C77.232 51.768 77.008 51.768 76.752 51.768ZM76.752 37.176C78.544 37.176 80.848 36.376 83.664 34.776C87.632 32.536 90.416 29.656 92.016 26.136C92.464 25.24 92.688 24.504 92.688 23.928C92.688 23.352 92.464 23.064 92.016 23.064C91.184 23.064 89.488 24.088 86.928 26.136C85.072 27.736 83.248 29.464 81.456 31.32C79.728 33.112 78.064 35.032 76.464 37.08C76.4 37.144 76.496 37.176 76.752 37.176ZM90.1495 80.568C87.7175 80.568 86.5015 79.352 86.5015 76.92C86.5015 74.936 87.3655 72.568 89.0935 69.816C90.1815 68.088 91.5575 66.232 93.2215 64.248C94.9495 62.328 96.9975 60.28 99.3655 58.104C103.59 54.008 108.07 50.456 112.806 47.448C113.382 46.04 114.022 44.312 114.726 42.264C115.43 40.216 116.23 37.784 117.126 34.968C116.934 35.416 116.23 36.344 115.014 37.752C113.862 39.096 112.166 40.984 109.926 43.416C104.55 49.368 100.742 52.056 98.5015 51.48C95.0455 50.584 93.3175 48.664 93.3175 45.72C93.3175 42.84 95.0135 39.064 98.4055 34.392C99.3655 33.112 100.55 31.832 101.958 30.552C103.366 29.272 104.966 28.024 106.758 26.808C111.302 23.672 115.59 22.104 119.622 22.104C122.118 22.104 124.39 22.744 126.438 24.024C127.014 24.408 127.302 24.888 127.302 25.464C127.302 26.04 127.174 26.328 126.918 26.328C126.854 26.328 126.79 26.296 126.726 26.232C125.446 24.76 123.686 24.024 121.446 24.024C118.822 24.024 115.878 25.016 112.614 27C109.35 28.984 106.342 31.64 103.59 34.968C99.3015 40.216 97.1575 44.312 97.1575 47.256C97.1575 48.6 97.6695 49.496 98.6935 49.944C100.102 50.52 103.654 47.672 109.35 41.4C111.59 38.904 113.51 36.664 115.109 34.68C116.774 32.696 118.086 31 119.046 29.592C119.494 28.952 120.134 28.632 120.966 28.632C122.502 28.632 123.27 29.208 123.27 30.36C123.27 30.616 123.174 30.904 122.982 31.224C122.534 32.504 121.926 34.232 121.158 36.408C120.39 38.52 119.462 41.08 118.374 44.088C120.422 42.872 122.054 42.264 123.27 42.264C123.782 42.264 124.038 42.392 124.038 42.648C124.038 43.288 123.238 43.896 121.638 44.472C120.998 44.728 120.294 45.016 119.526 45.336C118.822 45.656 118.054 46.04 117.222 46.488C112.742 57.624 107.334 66.808 100.998 74.04C97.1575 78.392 93.5415 80.568 90.1495 80.568ZM92.1655 78.552C93.3815 78.552 94.8535 77.56 96.5815 75.576C102.278 69.176 107.27 60.792 111.558 50.424C103.046 56.76 96.7095 63.352 92.5495 70.2C91.1415 72.44 90.4375 74.424 90.4375 76.152C90.4375 77.752 91.0135 78.552 92.1655 78.552ZM126.094 52.152C125.198 52.152 124.75 51.864 124.75 51.288C124.75 51.224 124.814 51 124.942 50.616C127.95 44.856 131.502 36.632 135.598 25.944C136.046 24.792 136.814 23.8 137.902 22.968C138.99 22.072 139.918 21.624 140.686 21.624C141.518 21.624 141.87 22.072 141.742 22.968C141.102 24.312 140.334 26.04 139.438 28.152C138.542 30.264 137.486 32.728 136.27 35.544C138.062 33.176 140.718 30.52 144.238 27.576C146.03 26.104 147.566 24.888 148.846 23.928C150.19 22.968 151.31 22.264 152.206 21.816C153.102 21.368 154.094 21.144 155.182 21.144C156.462 21.144 157.55 21.464 158.446 22.104C159.342 22.744 159.79 23.48 159.79 24.312C159.79 24.824 159.534 25.4 159.022 26.04C158.574 26.616 158.094 26.904 157.582 26.904C157.326 26.904 156.782 26.648 155.95 26.136C155.182 25.56 154.35 25.272 153.454 25.272C152.494 25.272 151.374 25.56 150.094 26.136C141.966 29.784 134.958 38.008 129.07 50.808C128.686 51.704 127.694 52.152 126.094 52.152ZM176.318 52.056C175.038 52.056 173.854 51.64 172.766 50.808C171.742 49.976 171.134 49.176 170.942 48.408C170.75 47.512 171.934 44.312 174.494 38.808L172.286 41.976C171.326 43.384 170.366 44.632 169.406 45.72C168.446 46.808 167.55 47.768 166.718 48.6C164.286 50.904 162.238 51.864 160.574 51.48C156.734 50.584 154.814 48.408 154.814 44.952C154.814 42.2 156.126 38.68 158.75 34.392C159.582 33.112 160.638 31.832 161.918 30.552C163.198 29.272 164.67 28.024 166.334 26.808C170.622 23.672 174.75 22.104 178.718 22.104C181.15 22.104 183.454 22.744 185.63 24.024C186.334 24.536 186.686 25.08 186.686 25.656C186.686 26.104 186.558 26.328 186.302 26.328C186.238 26.328 186.174 26.296 186.11 26.232C184.766 24.76 182.974 24.024 180.734 24.024C178.11 24.024 175.262 25.016 172.19 27C169.118 28.984 166.366 31.64 163.934 34.968C160.478 39.768 158.75 43.672 158.75 46.68C158.75 48.408 159.358 49.496 160.574 49.944C162.11 50.584 165.374 47.736 170.366 41.4C172.414 38.904 174.11 36.664 175.454 34.68C176.862 32.696 177.982 31 178.814 29.592C179.198 28.888 179.902 28.536 180.926 28.536C182.846 28.536 183.806 29.112 183.806 30.264C183.806 30.456 183.774 30.584 183.71 30.648C178.142 39.48 175.358 45.464 175.358 48.6C175.358 49.368 175.582 49.784 176.03 49.848C177.374 50.232 179.614 49.24 182.75 46.872C186.526 44.056 190.078 40.312 193.406 35.64C194.11 34.68 194.75 34.2 195.326 34.2C195.518 34.2 195.614 34.264 195.614 34.392C195.614 34.712 195.326 35.32 194.75 36.216C193.406 38.328 191.902 40.312 190.238 42.168C188.638 44.024 186.846 45.752 184.862 47.352C182.046 49.72 179.742 51.192 177.95 51.768C177.502 51.96 176.958 52.056 176.318 52.056ZM224.697 51.96C223.289 52.088 221.945 51.736 220.665 50.904C219.385 50.008 218.745 49.016 218.745 47.928C218.745 45.944 220.633 42.136 224.409 36.504C228.569 30.296 230.649 26.712 230.649 25.752C230.649 25.176 230.361 24.856 229.785 24.792C227.929 24.92 225.433 26.392 222.297 29.208C217.497 33.624 212.665 40.28 207.801 49.176C207.609 49.496 206.873 49.656 205.593 49.656C204.185 49.656 203.481 49.08 203.481 47.928C203.481 45.944 205.369 42.136 209.145 36.504C213.305 30.296 215.385 26.712 215.385 25.752C215.385 25.176 215.097 24.856 214.521 24.792C212.665 24.92 209.785 26.776 205.881 30.36C200.249 35.608 195.065 42.584 190.329 51.288C190.265 51.416 190.105 51.512 189.849 51.576C189.657 51.64 189.273 51.672 188.697 51.672C186.265 51.672 185.177 51.288 185.433 50.52C186.137 48.664 187.353 45.88 189.081 42.168C190.873 38.456 193.177 33.784 195.993 28.152C197.913 24.376 199.865 22.488 201.849 22.488C202.489 22.488 202.905 22.648 203.097 22.968C203.225 23.16 201.881 25.912 199.065 31.224C197.721 33.784 196.665 35.832 195.897 37.368C195.129 38.84 194.585 39.8 194.265 40.248C195.353 39.16 196.633 37.816 198.105 36.216C199.641 34.616 201.401 32.76 203.385 30.648C206.521 27.128 209.977 24.504 213.753 22.776C214.521 22.456 215.321 22.296 216.153 22.296C218.905 22.296 220.281 23.48 220.281 25.848C220.281 27.192 219.737 28.792 218.649 30.648C221.593 27.192 225.049 24.568 229.017 22.776C229.913 22.392 230.937 22.2 232.089 22.2C234.713 22.2 236.025 23.16 236.025 25.08C236.025 26.296 235.417 27.736 234.201 29.4C227.289 39.064 223.833 45.56 223.833 48.888C223.833 49.592 224.057 50.04 224.505 50.232C225.465 50.616 227.289 50.04 229.977 48.504C233.369 46.52 236.505 43.736 239.385 40.152C239.769 39.704 240.153 39.48 240.537 39.48C240.793 39.48 240.921 39.576 240.921 39.768C240.921 40.024 240.729 40.408 240.345 40.92C237.145 45.016 233.977 48.024 230.841 49.944C228.281 51.544 226.233 52.216 224.697 51.96Z" fill="#E2E3DA"/>
<path d="M11.68 51V32.24H4.16V28.12H24.24V32.24H16.72V51H11.68ZM37.2306 37.44H48.8306V41.36H37.2306V37.44ZM37.9106 46.96H50.6306V51H32.8706V28.12H50.1906V32.2H37.9106V46.96ZM60.8394 51V28.12H65.8794V46.92H77.6394V51H60.8394ZM90.7853 37.44H102.385V41.36H90.7853V37.44ZM91.4653 46.96H104.185V51H86.4253V28.12H103.745V32.2H91.4653V46.96ZM134.394 48.48C133.621 49.0933 132.727 49.6267 131.714 50.08C130.727 50.5067 129.687 50.8267 128.594 51.04C127.501 51.28 126.394 51.4 125.274 51.4C122.821 51.4 120.621 50.8933 118.674 49.88C116.754 48.84 115.247 47.4267 114.154 45.64C113.061 43.8533 112.514 41.8267 112.514 39.56C112.514 37.2933 113.061 35.28 114.154 33.52C115.247 31.7333 116.741 30.3333 118.634 29.32C120.554 28.28 122.727 27.76 125.154 27.76C127.287 27.76 129.154 28.08 130.754 28.72C132.354 29.3333 133.687 30.2933 134.754 31.6L131.474 34.76C130.647 33.8267 129.714 33.1467 128.674 32.72C127.634 32.2667 126.487 32.04 125.234 32.04C123.767 32.04 122.447 32.36 121.274 33C120.127 33.64 119.221 34.5333 118.554 35.68C117.914 36.8 117.594 38.0933 117.594 39.56C117.594 41.0267 117.927 42.3333 118.594 43.48C119.261 44.6267 120.181 45.52 121.354 46.16C122.527 46.8 123.874 47.12 125.394 47.12C126.594 47.12 127.687 46.9333 128.674 46.56C129.687 46.1867 130.634 45.6267 131.514 44.88L134.394 48.48ZM129.634 48.52V39.36H134.394V48.48L129.634 48.52ZM145.644 51V28.12H155.524C157.577 28.12 159.351 28.4533 160.844 29.12C162.337 29.76 163.484 30.6933 164.284 31.92C165.111 33.1467 165.524 34.6267 165.524 36.36C165.524 38.0667 165.111 39.5333 164.284 40.76C163.484 41.9867 162.337 42.92 160.844 43.56C159.351 44.2 157.577 44.52 155.524 44.52H148.444L150.684 42.32V51H145.644ZM160.524 51L154.644 42.68H160.084L165.964 51H160.524ZM150.684 42.92L148.844 40.56H155.164C156.924 40.56 158.244 40.2 159.124 39.48C160.004 38.7333 160.444 37.6933 160.444 36.36C160.444 35.0267 160.004 34 159.124 33.28C158.244 32.56 156.924 32.2 155.164 32.2H148.844L150.684 29.88V42.92ZM172.433 51L182.833 28.12H187.833L198.193 51H193.193L184.473 30.68H186.153L177.353 51H172.433ZM177.593 46.04L178.953 42.2H190.873L192.233 46.04H177.593ZM206.464 51V28.12H210.784L220.504 44.12H218.464L228.024 28.12H232.344L232.384 51H227.584L227.544 35.68H228.304L220.544 48.44H218.264L210.264 35.68H211.264V51H206.464Z" fill="black" fill-opacity="0.81"/>
</svg>
