<svg width="193" height="85" viewBox="0 0 193 85" fill="none" xmlns="http://www.w3.org/2000/svg">
<path d="M12.768 54.632C7.84 53.544 5.376 51.304 5.376 47.912C5.376 46.952 5.536 45.832 5.856 44.552C6.176 43.208 6.688 41.736 7.392 40.136L15.552 21.8C14.592 21.928 13.536 22.056 12.384 22.184C11.232 22.312 9.952 22.44 8.544 22.568C8.288 22.568 8.16 22.344 8.16 21.896C8.16 21 8.32 20.488 8.64 20.36L16.704 19.208L22.944 6.536C23.52 5.384 25.312 4.808 28.32 4.808C29.728 4.808 30.336 4.968 30.144 5.288C28.736 7.528 27.296 9.8 25.824 12.104C24.416 14.344 23.008 16.584 21.6 18.824C21.792 18.76 22.208 18.696 22.848 18.632C23.488 18.568 24.32 18.504 25.344 18.44C26.112 18.376 26.848 18.344 27.552 18.344C28.256 18.28 28.928 18.248 29.568 18.248C32.256 18.248 33.536 18.376 33.408 18.632C32.96 19.08 28.608 19.944 20.352 21.224C13.376 34.408 9.888 43.72 9.888 49.16C9.888 51.144 10.464 52.328 11.616 52.712C12.512 52.968 14.784 51.784 18.432 49.16C20.544 47.624 22.464 45.96 24.192 44.168C25.92 42.312 27.488 40.36 28.896 38.312C29.344 37.672 29.76 37.352 30.144 37.352C30.4 37.352 30.528 37.48 30.528 37.736C30.528 37.992 30.368 38.376 30.048 38.888C27.616 42.792 24.384 46.472 20.352 49.928C16.448 53.32 13.92 54.888 12.768 54.632ZM46.1965 19.304C45.1725 19.432 44.0525 19.304 42.8365 18.92C41.6845 18.536 41.1085 18.056 41.1085 17.48C41.1085 17.096 41.2365 16.712 41.4925 16.328C41.7485 15.88 42.0685 15.432 42.4525 14.984C43.5405 13.64 44.1805 12.808 44.3725 12.488C44.5645 12.104 44.9165 11.912 45.4285 11.912C46.9005 11.912 48.0525 12.616 48.8845 14.024C48.9485 14.088 48.9805 14.216 48.9805 14.408C48.9805 14.984 48.6605 15.816 48.0205 16.904C47.1885 18.44 46.5805 19.24 46.1965 19.304ZM31.7005 53.96C27.9885 53.128 26.1325 51.656 26.1325 49.544C26.1325 48.52 27.3805 44.904 29.8765 38.696C30.5805 37.48 31.5085 35.72 32.6605 33.416C33.8765 31.048 35.3805 28.168 37.1725 24.776C37.4925 24.264 38.1965 24.008 39.2845 24.008C40.2445 24.008 41.1725 24.168 42.0685 24.488C43.0285 24.744 43.4125 25 43.2205 25.256C34.7725 37.224 30.5485 45.512 30.5485 50.12C30.5485 51.464 30.9965 52.136 31.8925 52.136C33.6205 52.136 36.3405 50.92 40.0525 48.488C44.4685 45.48 48.1805 41.864 51.1885 37.64C51.8285 36.616 52.4685 36.104 53.1085 36.104C53.3005 36.104 53.3965 36.2 53.3965 36.392C53.3965 36.712 53.1085 37.32 52.5325 38.216C49.7165 42.632 45.8125 46.536 40.8205 49.928C36.3405 53 33.3005 54.344 31.7005 53.96ZM84.3223 53.96C82.9143 54.088 81.5703 53.736 80.2903 52.904C79.0103 52.008 78.3703 51.016 78.3703 49.928C78.3703 47.944 80.2583 44.136 84.0343 38.504C88.1943 32.296 90.2743 28.712 90.2743 27.752C90.2743 27.176 89.9863 26.856 89.4103 26.792C87.5543 26.92 85.0583 28.392 81.9223 31.208C77.1223 35.624 72.2903 42.28 67.4263 51.176C67.2343 51.496 66.4983 51.656 65.2183 51.656C63.8103 51.656 63.1063 51.08 63.1063 49.928C63.1063 47.944 64.9943 44.136 68.7703 38.504C72.9303 32.296 75.0103 28.712 75.0103 27.752C75.0103 27.176 74.7223 26.856 74.1463 26.792C72.2903 26.92 69.4103 28.776 65.5063 32.36C59.8743 37.608 54.6903 44.584 49.9543 53.288C49.8903 53.416 49.7303 53.512 49.4743 53.576C49.2823 53.64 48.8983 53.672 48.3223 53.672C45.8903 53.672 44.8023 53.288 45.0583 52.52C45.7623 50.664 46.9783 47.88 48.7063 44.168C50.4983 40.456 52.8023 35.784 55.6183 30.152C57.5383 26.376 59.4903 24.488 61.4743 24.488C62.1143 24.488 62.5303 24.648 62.7223 24.968C62.8503 25.16 61.5063 27.912 58.6903 33.224C57.3463 35.784 56.2903 37.832 55.5223 39.368C54.7543 40.84 54.2103 41.8 53.8903 42.248C54.9783 41.16 56.2583 39.816 57.7303 38.216C59.2663 36.616 61.0263 34.76 63.0103 32.648C66.1463 29.128 69.6023 26.504 73.3783 24.776C74.1463 24.456 74.9463 24.296 75.7783 24.296C78.5303 24.296 79.9063 25.48 79.9063 27.848C79.9063 29.192 79.3623 30.792 78.2743 32.648C81.2183 29.192 84.6743 26.568 88.6423 24.776C89.5383 24.392 90.5623 24.2 91.7143 24.2C94.3383 24.2 95.6503 25.16 95.6503 27.08C95.6503 28.296 95.0423 29.736 93.8263 31.4C86.9143 41.064 83.4583 47.56 83.4583 50.888C83.4583 51.592 83.6823 52.04 84.1303 52.232C85.0903 52.616 86.9143 52.04 89.6023 50.504C92.9943 48.52 96.1303 45.736 99.0103 42.152C99.3943 41.704 99.7783 41.48 100.162 41.48C100.418 41.48 100.546 41.576 100.546 41.768C100.546 42.024 100.354 42.408 99.9703 42.92C96.7703 47.016 93.6023 50.024 90.4663 51.944C87.9063 53.544 85.8583 54.216 84.3223 53.96ZM119.165 19.304C118.141 19.432 117.021 19.304 115.805 18.92C114.653 18.536 114.077 18.056 114.077 17.48C114.077 17.096 114.205 16.712 114.461 16.328C114.717 15.88 115.037 15.432 115.421 14.984C116.509 13.64 117.149 12.808 117.341 12.488C117.533 12.104 117.885 11.912 118.397 11.912C119.869 11.912 121.021 12.616 121.853 14.024C121.917 14.088 121.949 14.216 121.949 14.408C121.949 14.984 121.629 15.816 120.989 16.904C120.157 18.44 119.549 19.24 119.165 19.304ZM104.669 53.96C100.957 53.128 99.1013 51.656 99.1013 49.544C99.1013 48.52 100.349 44.904 102.845 38.696C103.549 37.48 104.477 35.72 105.629 33.416C106.845 31.048 108.349 28.168 110.141 24.776C110.461 24.264 111.165 24.008 112.253 24.008C113.213 24.008 114.141 24.168 115.037 24.488C115.997 24.744 116.381 25 116.189 25.256C107.741 37.224 103.517 45.512 103.517 50.12C103.517 51.464 103.965 52.136 104.861 52.136C106.589 52.136 109.309 50.92 113.021 48.488C117.437 45.48 121.149 41.864 124.157 37.64C124.797 36.616 125.437 36.104 126.077 36.104C126.269 36.104 126.365 36.2 126.365 36.392C126.365 36.712 126.077 37.32 125.501 38.216C122.685 42.632 118.781 46.536 113.789 49.928C109.309 53 106.269 54.344 104.669 53.96ZM142.795 53.96C141.387 54.088 140.043 53.736 138.763 52.904C137.483 52.008 136.843 51.016 136.843 49.928C136.843 47.944 138.731 44.136 142.507 38.504C146.667 32.296 148.747 28.712 148.747 27.752C148.747 27.176 148.459 26.856 147.883 26.792C146.027 26.92 143.147 28.776 139.243 32.36C133.675 37.544 128.459 44.584 123.595 53.48C123.467 53.608 123.115 53.672 122.539 53.672C119.787 53.672 118.539 53.288 118.795 52.52C119.499 50.664 120.715 47.88 122.443 44.168C124.235 40.456 126.539 35.784 129.355 30.152C131.275 26.376 133.227 24.488 135.211 24.488C135.851 24.488 136.267 24.648 136.459 24.968C136.587 25.16 135.243 27.912 132.427 33.224C131.083 35.784 130.027 37.832 129.259 39.368C128.491 40.84 127.947 41.8 127.627 42.248C128.715 41.16 129.995 39.816 131.467 38.216C133.003 36.616 134.763 34.76 136.747 32.648C139.883 29.128 143.339 26.504 147.115 24.776C148.011 24.392 149.035 24.2 150.187 24.2C152.811 24.2 154.123 25.16 154.123 27.08C154.123 28.296 153.515 29.736 152.299 31.4C145.387 41.064 141.931 47.56 141.931 50.888C141.931 51.592 142.155 52.04 142.603 52.232C143.627 52.68 146.155 51.624 150.187 49.064C154.923 45.992 158.955 42.184 162.283 37.64C162.987 36.68 163.627 36.2 164.203 36.2C164.395 36.2 164.491 36.264 164.491 36.392C164.491 36.712 164.203 37.32 163.627 38.216C160.811 42.632 156.907 46.536 151.915 49.928C147.435 52.872 144.395 54.216 142.795 53.96ZM153.118 82.568C150.686 82.568 149.47 81.352 149.47 78.92C149.47 76.936 150.334 74.568 152.062 71.816C153.15 70.088 154.526 68.232 156.19 66.248C157.918 64.328 159.966 62.28 162.334 60.104C166.558 56.008 171.038 52.456 175.774 49.448C176.35 48.04 176.99 46.312 177.694 44.264C178.398 42.216 179.198 39.784 180.094 36.968C179.902 37.416 179.198 38.344 177.982 39.752C176.83 41.096 175.134 42.984 172.894 45.416C167.518 51.368 163.71 54.056 161.47 53.48C158.014 52.584 156.286 50.664 156.286 47.72C156.286 44.84 157.982 41.064 161.374 36.392C162.334 35.112 163.518 33.832 164.926 32.552C166.334 31.272 167.934 30.024 169.726 28.808C174.27 25.672 178.558 24.104 182.59 24.104C185.086 24.104 187.358 24.744 189.406 26.024C189.982 26.408 190.27 26.888 190.27 27.464C190.27 28.04 190.142 28.328 189.886 28.328C189.822 28.328 189.758 28.296 189.694 28.232C188.414 26.76 186.654 26.024 184.414 26.024C181.79 26.024 178.846 27.016 175.582 29C172.318 30.984 169.31 33.64 166.558 36.968C162.27 42.216 160.126 46.312 160.126 49.256C160.126 50.6 160.638 51.496 161.662 51.944C163.07 52.52 166.622 49.672 172.318 43.4C174.558 40.904 176.478 38.664 178.078 36.68C179.742 34.696 181.054 33 182.014 31.592C182.462 30.952 183.102 30.632 183.934 30.632C185.47 30.632 186.238 31.208 186.238 32.36C186.238 32.616 186.142 32.904 185.95 33.224C185.502 34.504 184.894 36.232 184.126 38.408C183.358 40.52 182.43 43.08 181.342 46.088C183.39 44.872 185.022 44.264 186.238 44.264C186.75 44.264 187.006 44.392 187.006 44.648C187.006 45.288 186.206 45.896 184.606 46.472C183.966 46.728 183.262 47.016 182.494 47.336C181.79 47.656 181.022 48.04 180.19 48.488C175.71 59.624 170.302 68.808 163.966 76.04C160.126 80.392 156.51 82.568 153.118 82.568ZM155.134 80.552C156.35 80.552 157.822 79.56 159.55 77.576C165.246 71.176 170.238 62.792 174.526 52.424C166.014 58.76 159.678 65.352 155.518 72.2C154.11 74.44 153.406 76.424 153.406 78.152C153.406 79.752 153.982 80.552 155.134 80.552Z" fill="#E2E3DA"/>
<path d="M22.68 52.7168V33.9568H15.16V29.8368H35.24V33.9568H27.72V52.7168H22.68ZM43.8706 52.7168V29.8368H48.9106V52.7168H43.8706ZM60.8628 52.7168V29.8368H65.1828L74.9028 45.8368H72.8628L82.4228 29.8368H86.7428L86.7828 52.7168H81.9828L81.9428 37.3968H82.7028L74.9428 50.1568H72.6628L64.6628 37.3968H65.6628V52.7168H60.8628ZM98.7534 52.7168V29.8368H103.793V52.7168H98.7534ZM115.746 52.7168V29.8368H119.906L133.706 46.5568H131.826V29.8368H136.826V52.7168H132.666L118.866 35.9968H120.786V52.7168H115.746ZM168.793 50.1968C168.019 50.8101 167.126 51.3435 166.113 51.7968C165.126 52.2235 164.086 52.5435 162.993 52.7568C161.899 52.9968 160.793 53.1168 159.673 53.1168C157.219 53.1168 155.019 52.6101 153.073 51.5968C151.153 50.5568 149.646 49.1435 148.553 47.3568C147.459 45.5701 146.913 43.5435 146.913 41.2768C146.913 39.0101 147.459 36.9968 148.553 35.2368C149.646 33.4501 151.139 32.0501 153.033 31.0368C154.953 29.9968 157.126 29.4768 159.553 29.4768C161.686 29.4768 163.553 29.7968 165.153 30.4368C166.753 31.0501 168.086 32.0101 169.153 33.3168L165.872 36.4768C165.046 35.5435 164.113 34.8635 163.073 34.4368C162.033 33.9835 160.886 33.7568 159.633 33.7568C158.166 33.7568 156.846 34.0768 155.673 34.7168C154.526 35.3568 153.619 36.2501 152.953 37.3968C152.313 38.5168 151.993 39.8101 151.993 41.2768C151.993 42.7435 152.326 44.0501 152.993 45.1968C153.659 46.3435 154.579 47.2368 155.753 47.8768C156.926 48.5168 158.273 48.8368 159.793 48.8368C160.993 48.8368 162.086 48.6501 163.073 48.2768C164.086 47.9035 165.033 47.3435 165.913 46.5968L168.793 50.1968ZM164.033 50.2368V41.0768H168.793V50.1968L164.033 50.2368Z" fill="black" fill-opacity="0.81"/>
</svg>
