<svg width="156" height="75" viewBox="0 0 156 75" fill="none" xmlns="http://www.w3.org/2000/svg">
<path d="M4.0175 29.045C3.83417 29.045 3.55917 28.8617 3.1925 28.495C3.00917 28.3117 2.9175 27.89 2.9175 27.23C2.9175 25.8733 3.21083 24.1867 3.7975 22.17C4.16417 20.9967 4.54917 19.8967 4.9525 18.87C5.3925 17.8433 5.86917 16.89 6.3825 16.01C7.22583 14.6167 8.0875 13.92 8.9675 13.92C9.4075 13.92 9.7925 14.085 10.1225 14.415C10.4525 14.7083 10.6175 15.02 10.6175 15.35C10.6175 15.46 10.5992 15.5333 10.5625 15.57C10.0125 16.0833 9.09583 17.22 7.8125 18.98C7.18917 20.0433 6.62083 21.1983 6.1075 22.445C5.59417 23.6917 5.15417 25.0483 4.7875 26.515C5.37417 25.5983 6.1625 24.5717 7.1525 23.435C8.17917 22.2983 9.42583 21.0517 10.8925 19.695C12.0292 18.6317 13.0925 17.6783 14.0825 16.835C15.1092 15.955 16.0808 15.185 16.9975 14.525C16.9975 14.4883 17.0158 14.47 17.0525 14.47V14.415C17.8225 13.315 18.8308 12.765 20.0775 12.765C20.5542 12.765 20.7925 12.9117 20.7925 13.205C20.7925 13.3517 20.7008 13.5533 20.5175 13.81C19.4542 14.7633 18.3542 16.4867 17.2175 18.98C16.0442 21.6567 15.4575 23.765 15.4575 25.305C15.4575 26.5517 15.9342 27.175 16.8875 27.175C18.8675 27.175 20.9208 26.185 23.0475 24.205C25.8708 21.6017 27.5208 18.0817 27.9975 13.645C28.1808 12.325 28.6025 11.61 29.2625 11.5H29.4275C29.8675 11.5 30.1608 11.6833 30.3075 12.05L30.4725 12.93C30.3992 15.8633 28.8225 19.145 25.7425 22.775C22.5525 26.5517 19.5642 28.44 16.7775 28.44C14.3942 28.44 13.2025 26.9733 13.2025 24.04C13.2025 21.95 13.9175 19.64 15.3475 17.11C10.6908 20.7033 7.11583 24.535 4.6225 28.605C4.43917 28.8983 4.2375 29.045 4.0175 29.045ZM36.6844 28.44C35.6211 28.44 34.6861 28.1833 33.8794 27.67C32.8161 26.9367 32.2844 25.8733 32.2844 24.48C32.2844 22.9767 32.9261 21.1433 34.2094 18.98C35.9327 16.1567 38.4627 13.6817 41.7994 11.555C42.6427 11.005 43.4861 10.73 44.3294 10.73C45.4294 10.73 46.2177 11.0783 46.6944 11.775C46.9877 12.1783 47.1344 12.6367 47.1344 13.15C47.1344 14.69 45.8877 16.3767 43.3944 18.21C42.6611 18.7233 41.8727 19.2 41.0294 19.64C40.2227 20.0433 39.3427 20.3367 38.3894 20.52L36.0244 21.015C35.1444 22.5917 34.7044 23.9117 34.7044 24.975C34.7044 26.4417 35.5661 27.175 37.2894 27.175C38.6461 27.175 40.2961 26.6067 42.2394 25.47C44.8427 23.9667 47.0794 21.8767 48.9494 19.2C49.2427 18.76 49.5177 18.54 49.7744 18.54C49.8844 18.54 49.9394 18.6133 49.9394 18.76C49.9394 18.9433 49.8111 19.2183 49.5544 19.585C45.9977 24.9383 41.9827 27.8717 37.5094 28.385C37.3627 28.4217 37.2161 28.44 37.0694 28.44C36.9594 28.44 36.8311 28.44 36.6844 28.44ZM36.6844 20.08C37.7111 20.08 39.0311 19.6217 40.6444 18.705C42.9177 17.4217 44.5127 15.7717 45.4294 13.755C45.6861 13.2417 45.8144 12.82 45.8144 12.49C45.8144 12.16 45.6861 11.995 45.4294 11.995C44.9527 11.995 43.9811 12.5817 42.5144 13.755C41.4511 14.6717 40.4061 15.6617 39.3794 16.725C38.3894 17.7517 37.4361 18.8517 36.5194 20.025C36.4827 20.0617 36.5377 20.08 36.6844 20.08ZM63.1668 28.605C62.4702 28.605 61.8102 28.4217 61.1868 28.055C60.6002 27.725 60.2152 27.3583 60.0318 26.955C59.9218 26.6617 59.8668 26.2767 59.8668 25.8C59.8668 25.1767 59.9402 24.4617 60.0868 23.655C60.2335 22.8117 60.4535 21.9133 60.7468 20.96C60.4902 21.4367 60.1235 21.9867 59.6468 22.61C59.2068 23.2333 58.6568 23.9667 57.9968 24.81C56.0168 27.1567 54.4035 28.33 53.1568 28.33C52.9735 28.33 52.8268 28.3117 52.7168 28.275C50.5168 27.7617 49.4168 26.515 49.4168 24.535C49.4168 22.9583 50.1685 20.9417 51.6718 18.485C52.6252 16.9817 54.0735 15.5333 56.0168 14.14C58.5102 12.3067 60.8752 11.39 63.1118 11.39C63.9552 11.39 64.7435 11.5183 65.4768 11.775L67.1268 8.805C67.9702 7.30167 68.6668 5.945 69.2168 4.735C69.8035 3.525 70.2802 2.48 70.6468 1.6C70.9402 0.939999 71.9668 0.609999 73.7268 0.609999C74.5335 0.609999 74.8818 0.701665 74.7718 0.884998L67.5118 12.93C67.6585 13.15 67.6952 13.4067 67.6218 13.7C67.5852 13.92 67.4935 13.9567 67.3468 13.81L67.1268 13.59L66.4118 14.8C63.6252 19.53 62.2318 23.215 62.2318 25.855C62.2318 26.8817 62.5802 27.395 63.2768 27.395C64.0468 27.395 65.2202 26.8083 66.7968 25.635C68.9602 24.0217 70.9952 21.8767 72.9018 19.2C73.3052 18.65 73.6718 18.375 74.0018 18.375C74.1118 18.375 74.1668 18.4117 74.1668 18.485C74.1668 18.6683 74.0018 19.0167 73.6718 19.53C72.0952 21.95 70.2618 24.0767 68.1718 25.91C66.5218 27.34 65.2385 28.1833 64.3218 28.44C63.9552 28.55 63.5702 28.605 63.1668 28.605ZM52.7168 27.395C53.5968 27.7617 55.4668 26.13 58.3268 22.5C59.4268 21.1067 60.3802 19.86 61.1868 18.76C61.9935 17.6233 62.6535 16.615 63.1668 15.735C63.3135 15.4417 63.5335 15.0383 63.8268 14.525C64.1568 13.975 64.5602 13.3333 65.0368 12.6C64.9268 12.5633 64.7985 12.545 64.6518 12.545C64.5418 12.545 64.4318 12.545 64.3218 12.545C62.8185 12.545 61.2052 13.1133 59.4818 14.25C57.7585 15.35 56.1452 16.8717 54.6418 18.815C53.5785 20.1717 52.8085 21.4183 52.3318 22.555C51.8918 23.6917 51.6718 24.6817 51.6718 25.525C51.6718 26.515 52.0202 27.1383 52.7168 27.395ZM86.953 28.605C86.2563 28.605 85.5963 28.4217 84.973 28.055C84.3863 27.725 84.0013 27.3583 83.818 26.955C83.708 26.6617 83.653 26.2767 83.653 25.8C83.653 25.1767 83.7263 24.4617 83.873 23.655C84.0196 22.8117 84.2396 21.9133 84.533 20.96C84.2763 21.4367 83.9096 21.9867 83.433 22.61C82.993 23.2333 82.443 23.9667 81.783 24.81C79.803 27.1567 78.1896 28.33 76.943 28.33C76.7596 28.33 76.613 28.3117 76.503 28.275C74.303 27.7617 73.203 26.515 73.203 24.535C73.203 22.9583 73.9546 20.9417 75.458 18.485C76.4113 16.9817 77.8596 15.5333 79.803 14.14C82.2963 12.3067 84.6613 11.39 86.898 11.39C87.7413 11.39 88.5296 11.5183 89.263 11.775L90.913 8.805C91.7563 7.30167 92.453 5.945 93.003 4.735C93.5896 3.525 94.0663 2.48 94.433 1.6C94.7263 0.939999 95.753 0.609999 97.513 0.609999C98.3196 0.609999 98.668 0.701665 98.558 0.884998L91.298 12.93C91.4446 13.15 91.4813 13.4067 91.408 13.7C91.3713 13.92 91.2796 13.9567 91.133 13.81L90.913 13.59L90.198 14.8C87.4113 19.53 86.018 23.215 86.018 25.855C86.018 26.8817 86.3663 27.395 87.063 27.395C87.833 27.395 89.0063 26.8083 90.583 25.635C92.7463 24.0217 94.7813 21.8767 96.688 19.2C97.0913 18.65 97.458 18.375 97.788 18.375C97.898 18.375 97.953 18.4117 97.953 18.485C97.953 18.6683 97.788 19.0167 97.458 19.53C95.8813 21.95 94.048 24.0767 91.958 25.91C90.308 27.34 89.0246 28.1833 88.108 28.44C87.7413 28.55 87.3563 28.605 86.953 28.605ZM76.503 27.395C77.383 27.7617 79.253 26.13 82.113 22.5C83.213 21.1067 84.1663 19.86 84.973 18.76C85.7796 17.6233 86.4396 16.615 86.953 15.735C87.0996 15.4417 87.3196 15.0383 87.613 14.525C87.943 13.975 88.3463 13.3333 88.823 12.6C88.713 12.5633 88.5846 12.545 88.438 12.545C88.328 12.545 88.218 12.545 88.108 12.545C86.6046 12.545 84.9913 13.1133 83.268 14.25C81.5446 15.35 79.9313 16.8717 78.428 18.815C77.3646 20.1717 76.5946 21.4183 76.118 22.555C75.678 23.6917 75.458 24.6817 75.458 25.525C75.458 26.515 75.8063 27.1383 76.503 27.395ZM108.924 8.695C108.337 8.76833 107.696 8.695 106.999 8.475C106.339 8.255 106.009 7.98 106.009 7.65C106.009 7.43 106.082 7.21 106.229 6.99C106.376 6.73333 106.559 6.47667 106.779 6.22C107.402 5.45 107.769 4.97333 107.879 4.79C107.989 4.57 108.191 4.46 108.484 4.46C109.327 4.46 109.987 4.86333 110.464 5.67C110.501 5.70667 110.519 5.78 110.519 5.89C110.519 6.22 110.336 6.69667 109.969 7.32C109.492 8.2 109.144 8.65833 108.924 8.695ZM100.619 28.55C98.4924 28.0733 97.4291 27.23 97.4291 26.02C97.4291 25.4333 98.1441 23.3617 99.5741 19.805C99.9774 19.1083 100.509 18.1 101.169 16.78C101.866 15.4233 102.727 13.7733 103.754 11.83C103.937 11.5367 104.341 11.39 104.964 11.39C105.514 11.39 106.046 11.4817 106.559 11.665C107.109 11.8117 107.329 11.9583 107.219 12.105C102.379 18.9617 99.9591 23.71 99.9591 26.35C99.9591 27.12 100.216 27.505 100.729 27.505C101.719 27.505 103.277 26.8083 105.404 25.415C107.934 23.6917 110.061 21.62 111.784 19.2C112.151 18.6133 112.517 18.32 112.884 18.32C112.994 18.32 113.049 18.375 113.049 18.485C113.049 18.6683 112.884 19.0167 112.554 19.53C110.941 22.06 108.704 24.2967 105.844 26.24C103.277 28 101.536 28.77 100.619 28.55ZM125.319 28.55C124.512 28.6233 123.742 28.4217 123.009 27.945C122.275 27.4317 121.909 26.8633 121.909 26.24C121.909 25.1033 122.99 22.9217 125.154 19.695C127.537 16.1383 128.729 14.085 128.729 13.535C128.729 13.205 128.564 13.0217 128.234 12.985C127.17 13.0583 125.52 14.1217 123.284 16.175C120.094 19.145 117.105 23.1783 114.319 28.275C114.245 28.3483 114.044 28.385 113.714 28.385C112.137 28.385 111.422 28.165 111.569 27.725C111.972 26.6617 112.669 25.0667 113.659 22.94C114.685 20.8133 116.005 18.1367 117.619 14.91C118.719 12.7467 119.837 11.665 120.974 11.665C121.34 11.665 121.579 11.7567 121.689 11.94C121.762 12.05 120.992 13.6267 119.379 16.67C118.609 18.1367 118.004 19.31 117.564 20.19C117.124 21.0333 116.812 21.5833 116.629 21.84C117.252 21.2167 117.985 20.4467 118.829 19.53C119.709 18.6133 120.717 17.55 121.854 16.34C123.65 14.3233 125.63 12.82 127.794 11.83C128.307 11.61 128.894 11.5 129.554 11.5C131.057 11.5 131.809 12.05 131.809 13.15C131.809 13.8467 131.46 14.6717 130.764 15.625C126.804 21.1617 124.824 24.8833 124.824 26.79C124.824 27.1933 124.952 27.45 125.209 27.56C125.795 27.8167 127.244 27.2117 129.554 25.745C132.267 23.985 134.577 21.8033 136.484 19.2C136.887 18.65 137.254 18.375 137.584 18.375C137.694 18.375 137.749 18.4117 137.749 18.485C137.749 18.6683 137.584 19.0167 137.254 19.53C135.64 22.06 133.404 24.2967 130.544 26.24C127.977 27.9267 126.235 28.6967 125.319 28.55ZM134.09 44.94C132.697 44.94 132 44.2433 132 42.85C132 41.7133 132.495 40.3567 133.485 38.78C134.108 37.79 134.897 36.7267 135.85 35.59C136.84 34.49 138.013 33.3167 139.37 32.07C141.79 29.7233 144.357 27.6883 147.07 25.965C147.4 25.1583 147.767 24.1683 148.17 22.995C148.573 21.8217 149.032 20.4283 149.545 18.815C149.435 19.0717 149.032 19.6033 148.335 20.41C147.675 21.18 146.703 22.2617 145.42 23.655C142.34 27.065 140.158 28.605 138.875 28.275C136.895 27.7617 135.905 26.6617 135.905 24.975C135.905 23.325 136.877 21.1617 138.82 18.485C139.37 17.7517 140.048 17.0183 140.855 16.285C141.662 15.5517 142.578 14.8367 143.605 14.14C146.208 12.3433 148.665 11.445 150.975 11.445C152.405 11.445 153.707 11.8117 154.88 12.545C155.21 12.765 155.375 13.04 155.375 13.37C155.375 13.7 155.302 13.865 155.155 13.865C155.118 13.865 155.082 13.8467 155.045 13.81C154.312 12.9667 153.303 12.545 152.02 12.545C150.517 12.545 148.83 13.1133 146.96 14.25C145.09 15.3867 143.367 16.9083 141.79 18.815C139.333 21.8217 138.105 24.1683 138.105 25.855C138.105 26.625 138.398 27.1383 138.985 27.395C139.792 27.725 141.827 26.0933 145.09 22.5C146.373 21.07 147.473 19.7867 148.39 18.65C149.343 17.5133 150.095 16.5417 150.645 15.735C150.902 15.3683 151.268 15.185 151.745 15.185C152.625 15.185 153.065 15.515 153.065 16.175C153.065 16.3217 153.01 16.4867 152.9 16.67C152.643 17.4033 152.295 18.3933 151.855 19.64C151.415 20.85 150.883 22.3167 150.26 24.04C151.433 23.3433 152.368 22.995 153.065 22.995C153.358 22.995 153.505 23.0683 153.505 23.215C153.505 23.5817 153.047 23.93 152.13 24.26C151.763 24.4067 151.36 24.5717 150.92 24.755C150.517 24.9383 150.077 25.1583 149.6 25.415C147.033 31.795 143.935 37.0567 140.305 41.2C138.105 43.6933 136.033 44.94 134.09 44.94ZM135.245 43.785C135.942 43.785 136.785 43.2167 137.775 42.08C141.038 38.4133 143.898 33.61 146.355 27.67C141.478 31.3 137.848 35.0767 135.465 39C134.658 40.2833 134.255 41.42 134.255 42.41C134.255 43.3267 134.585 43.785 135.245 43.785ZM103.058 58.605C102.362 58.605 101.702 58.4217 101.078 58.055C100.492 57.725 100.107 57.3583 99.9234 56.955C99.8134 56.6617 99.7584 56.2767 99.7584 55.8C99.7584 55.1767 99.8318 54.4617 99.9784 53.655C100.125 52.8117 100.345 51.9133 100.638 50.96C100.382 51.4367 100.015 51.9867 99.5384 52.61C99.0984 53.2333 98.5484 53.9667 97.8884 54.81C95.9084 57.1567 94.2951 58.33 93.0484 58.33C92.8651 58.33 92.7184 58.3117 92.6084 58.275C90.4084 57.7617 89.3084 56.515 89.3084 54.535C89.3084 52.9583 90.0601 50.9417 91.5634 48.485C92.5168 46.9817 93.9651 45.5333 95.9084 44.14C98.4018 42.3067 100.767 41.39 103.003 41.39C103.847 41.39 104.635 41.5183 105.368 41.775L107.018 38.805C107.862 37.3017 108.558 35.945 109.108 34.735C109.695 33.525 110.172 32.48 110.538 31.6C110.832 30.94 111.858 30.61 113.618 30.61C114.425 30.61 114.773 30.7017 114.663 30.885L107.403 42.93C107.55 43.15 107.587 43.4067 107.513 43.7C107.477 43.92 107.385 43.9567 107.238 43.81L107.018 43.59L106.303 44.8C103.517 49.53 102.123 53.215 102.123 55.855C102.123 56.8817 102.472 57.395 103.168 57.395C103.938 57.395 105.112 56.8083 106.688 55.635C108.852 54.0217 110.887 51.8767 112.793 49.2C113.197 48.65 113.563 48.375 113.893 48.375C114.003 48.375 114.058 48.4117 114.058 48.485C114.058 48.6683 113.893 49.0167 113.563 49.53C111.987 51.95 110.153 54.0767 108.063 55.91C106.413 57.34 105.13 58.1833 104.213 58.44C103.847 58.55 103.462 58.605 103.058 58.605ZM92.6084 57.395C93.4884 57.7617 95.3584 56.13 98.2184 52.5C99.3184 51.1067 100.272 49.86 101.078 48.76C101.885 47.6233 102.545 46.615 103.058 45.735C103.205 45.4417 103.425 45.0383 103.718 44.525C104.048 43.975 104.452 43.3333 104.928 42.6C104.818 42.5633 104.69 42.545 104.543 42.545C104.433 42.545 104.323 42.545 104.213 42.545C102.71 42.545 101.097 43.1133 99.3734 44.25C97.6501 45.35 96.0368 46.8717 94.5334 48.815C93.4701 50.1717 92.7001 51.4183 92.2234 52.555C91.7834 53.6917 91.5634 54.6817 91.5634 55.525C91.5634 56.515 91.9118 57.1383 92.6084 57.395ZM126.46 58.605C125.726 58.605 125.048 58.3667 124.425 57.89C123.838 57.4133 123.49 56.955 123.38 56.515C123.27 56.0017 123.948 54.1683 125.415 51.015L124.15 52.83C123.6 53.6367 123.05 54.3517 122.5 54.975C121.95 55.5983 121.436 56.1483 120.96 56.625C119.566 57.945 118.393 58.495 117.44 58.275C115.24 57.7617 114.14 56.515 114.14 54.535C114.14 52.9583 114.891 50.9417 116.395 48.485C116.871 47.7517 117.476 47.0183 118.21 46.285C118.943 45.5517 119.786 44.8367 120.74 44.14C123.196 42.3433 125.561 41.445 127.835 41.445C129.228 41.445 130.548 41.8117 131.795 42.545C132.198 42.8383 132.4 43.15 132.4 43.48C132.4 43.7367 132.326 43.865 132.18 43.865C132.143 43.865 132.106 43.8467 132.07 43.81C131.3 42.9667 130.273 42.545 128.99 42.545C127.486 42.545 125.855 43.1133 124.095 44.25C122.335 45.3867 120.758 46.9083 119.365 48.815C117.385 51.565 116.395 53.8017 116.395 55.525C116.395 56.515 116.743 57.1383 117.44 57.395C118.32 57.7617 120.19 56.13 123.05 52.5C124.223 51.07 125.195 49.7867 125.965 48.65C126.771 47.5133 127.413 46.5417 127.89 45.735C128.11 45.3317 128.513 45.13 129.1 45.13C130.2 45.13 130.75 45.46 130.75 46.12C130.75 46.23 130.731 46.3033 130.695 46.34C127.505 51.4 125.91 54.8283 125.91 56.625C125.91 57.065 126.038 57.3033 126.295 57.34C127.065 57.56 128.348 56.9917 130.145 55.635C132.308 54.0217 134.343 51.8767 136.25 49.2C136.653 48.65 137.02 48.375 137.35 48.375C137.46 48.375 137.515 48.4117 137.515 48.485C137.515 48.6683 137.35 49.0167 137.02 49.53C136.25 50.74 135.388 51.8767 134.435 52.94C133.518 54.0033 132.491 54.9933 131.355 55.91C129.741 57.2667 128.421 58.11 127.395 58.44C127.138 58.55 126.826 58.605 126.46 58.605ZM134.374 74.94C132.981 74.94 132.284 74.2433 132.284 72.85C132.284 71.7133 132.779 70.3567 133.769 68.78C134.392 67.79 135.181 66.7267 136.134 65.59C137.124 64.49 138.297 63.3167 139.654 62.07C142.074 59.7233 144.641 57.6883 147.354 55.965C147.977 54.425 148.509 52.9583 148.949 51.565C149.426 50.1717 149.829 48.87 150.159 47.66C149.902 48.1 148.491 49.8233 145.924 52.83C142.807 56.4967 140.662 58.33 139.489 58.33C139.342 58.33 139.232 58.3117 139.159 58.275L137.509 57.395C136.996 57.1017 136.684 56.8267 136.574 56.57C136.464 56.2767 136.409 55.9833 136.409 55.69C136.409 54.7 136.702 53.2883 137.289 51.455C137.876 49.6217 138.792 47.385 140.039 44.745C140.589 43.5717 141.212 42.985 141.909 42.985C142.422 42.985 142.917 43.37 143.394 44.14L140.974 48.925C139.251 52.2983 138.389 54.645 138.389 55.965C138.389 56.845 138.682 57.285 139.269 57.285C140.442 57.285 142.642 55.2867 145.869 51.29C146.932 50.0067 147.904 48.7783 148.784 47.605C149.701 46.395 150.526 45.2217 151.259 44.085C151.516 43.7183 151.882 43.535 152.359 43.535C153.239 43.535 153.679 43.865 153.679 44.525C153.679 44.6717 153.624 44.8367 153.514 45.02C153.221 46.0467 152.817 47.3117 152.304 48.815C151.827 50.2817 151.241 52.0233 150.544 54.04C151.717 53.3433 152.652 52.995 153.349 52.995C153.642 52.995 153.789 53.0683 153.789 53.215C153.789 53.5817 153.331 53.93 152.414 54.26C152.047 54.4067 151.644 54.5717 151.204 54.755C150.801 54.9383 150.361 55.1583 149.884 55.415C147.317 61.795 144.219 67.0567 140.589 71.2C138.389 73.6933 136.317 74.94 134.374 74.94ZM135.529 73.785C136.226 73.785 137.069 73.2167 138.059 72.08C141.322 68.4133 144.182 63.61 146.639 57.67C141.762 61.3 138.132 65.0767 135.749 69C134.942 70.2833 134.539 71.42 134.539 72.41C134.539 73.3267 134.869 73.785 135.529 73.785Z" fill="#E2E3DA"/>
<path d="M17.3732 28L12.7892 14.272H15.9092L19.9172 26.56H18.3332L22.5332 14.272H25.3652L29.3732 26.56H27.8612L31.9652 14.272H34.8932L30.3092 28H27.0692L23.4452 17.128H24.2852L20.6372 28H17.3732ZM45.2587 19.864H52.2187V22.216H45.2587V19.864ZM45.6667 25.576H53.2987V28H42.6427V14.272H53.0347V16.72H45.6667V25.576ZM61.4239 28V14.272H67.6399C69.2079 14.272 70.5599 14.552 71.6959 15.112C72.8479 15.672 73.7359 16.472 74.3599 17.512C74.9999 18.536 75.3199 19.744 75.3199 21.136C75.3199 22.544 74.9999 23.76 74.3599 24.784C73.7359 25.808 72.8479 26.6 71.6959 27.16C70.5599 27.72 69.2079 28 67.6399 28H61.4239ZM64.4479 25.552H67.5439C68.5199 25.552 69.3599 25.376 70.0639 25.024C70.7679 24.672 71.3119 24.168 71.6959 23.512C72.0799 22.856 72.2719 22.064 72.2719 21.136C72.2719 20.208 72.0799 19.416 71.6959 18.76C71.3119 18.104 70.7679 17.608 70.0639 17.272C69.3599 16.92 68.5199 16.744 67.5439 16.744H64.4479V25.552ZM83.3693 28V14.272H89.5853C91.1533 14.272 92.5053 14.552 93.6413 15.112C94.7933 15.672 95.6813 16.472 96.3053 17.512C96.9453 18.536 97.2653 19.744 97.2653 21.136C97.2653 22.544 96.9453 23.76 96.3053 24.784C95.6813 25.808 94.7933 26.6 93.6413 27.16C92.5053 27.72 91.1533 28 89.5853 28H83.3693ZM86.3933 25.552H89.4893C90.4653 25.552 91.3053 25.376 92.0093 25.024C92.7133 24.672 93.2573 24.168 93.6413 23.512C94.0253 22.856 94.2173 22.064 94.2173 21.136C94.2173 20.208 94.0253 19.416 93.6413 18.76C93.2573 18.104 92.7133 17.608 92.0093 17.272C91.3053 16.92 90.4653 16.744 89.4893 16.744H86.3933V25.552ZM105.315 28V14.272H108.339V28H105.315ZM117.51 28V14.272H120.006L128.286 24.304H127.158V14.272H130.158V28H127.662L119.382 17.968H120.534V28H117.51ZM151.338 26.488C150.874 26.856 150.338 27.176 149.73 27.448C149.138 27.704 148.514 27.896 147.858 28.024C147.202 28.168 146.538 28.24 145.866 28.24C144.394 28.24 143.074 27.936 141.906 27.328C140.754 26.704 139.85 25.856 139.194 24.784C138.538 23.712 138.21 22.496 138.21 21.136C138.21 19.776 138.538 18.568 139.194 17.512C139.85 16.44 140.746 15.6 141.882 14.992C143.034 14.368 144.338 14.056 145.794 14.056C147.074 14.056 148.194 14.248 149.154 14.632C150.114 15 150.914 15.576 151.554 16.36L149.586 18.256C149.09 17.696 148.53 17.288 147.906 17.032C147.282 16.76 146.594 16.624 145.842 16.624C144.962 16.624 144.17 16.816 143.466 17.2C142.778 17.584 142.234 18.12 141.834 18.808C141.45 19.48 141.258 20.256 141.258 21.136C141.258 22.016 141.458 22.8 141.858 23.488C142.258 24.176 142.81 24.712 143.514 25.096C144.218 25.48 145.026 25.672 145.938 25.672C146.658 25.672 147.314 25.56 147.906 25.336C148.514 25.112 149.082 24.776 149.61 24.328L151.338 26.488ZM148.482 26.512V21.016H151.338V26.488L148.482 26.512ZM100.158 58V44.272H106.374C107.942 44.272 109.294 44.552 110.43 45.112C111.582 45.672 112.47 46.472 113.094 47.512C113.734 48.536 114.054 49.744 114.054 51.136C114.054 52.544 113.734 53.76 113.094 54.784C112.47 55.808 111.582 56.6 110.43 57.16C109.294 57.72 107.942 58 106.374 58H100.158ZM103.182 55.552H106.278C107.254 55.552 108.094 55.376 108.798 55.024C109.502 54.672 110.046 54.168 110.43 53.512C110.814 52.856 111.006 52.064 111.006 51.136C111.006 50.208 110.814 49.416 110.43 48.76C110.046 48.104 109.502 47.608 108.798 47.272C108.094 46.92 107.254 46.744 106.278 46.744H103.182V55.552ZM119.661 58L125.901 44.272H128.901L135.117 58H132.117L126.885 45.808H127.893L122.613 58H119.661ZM122.757 55.024L123.573 52.72H130.725L131.541 55.024H122.757ZM144.456 58V52.48L145.032 54.4L138.888 44.272H142.104L146.904 52.096H145.224L150.024 44.272H153.096L146.952 54.4L147.504 52.48V58H144.456Z" fill="black" fill-opacity="0.81"/>
</svg>
